<svg xmlns="http://www.w3.org/2000/svg" xmlns:xlink="http://www.w3.org/1999/xlink" id="Layer_1" x="0" y="0" version="1.1" viewBox="0 0 1000 74" style="enable-background:new 0 0 1000 74" xml:space="preserve"><style type="text/css">.st0{fill:#6060dd}.st1{fill:#12aeef}.st2{fill:#5e342e}.st3{fill:#c38762}.st4{fill:#a46d4d}.st5{fill:#d29771}.st6{fill:#623f33}.st7{fill:#ffc85c}.st8{fill:#ffa64e}.st9{fill:#ff9656}.st10{fill:#ef8c56}.st11{fill:#ffd7a3}.st12{fill:#fdc88e}.st13{fill:#9bce7a}.st14{fill:#ffe1b2}.st15{fill:#e4b07b}.st16{fill:#8abe69}.st17{fill:#76ab5f}.st18{fill:#d48f60}.st19{fill:#c57e52}.st20{fill:#43a0c5}.st21{fill:#57b9dd}.st22{fill:#ca8357}.st23{fill:#734a3e}.st24{fill:#00bea4}.st25{fill:#00ab9a}.st26{fill:#4e87bb}.st27{fill:#f6b47b}.st28{fill:#8d5f3d}.st29{fill:#835438}.st30{fill:#8db9e2}.st31{fill:#6aa2de}.st32{fill:#e2a071}.st33{fill:#f5b97a}.st34{fill:#ff6473}.st35{fill:#f05467}.st36{fill:#bd445a}.st37{fill:#9d6e48}.st38{fill:#956e55}.st39{fill:#6e4439}.st40{fill:#7c5a49}.st41{fill:#a2795c}.st42{fill:#653c34}.st43{fill:#ffc84a}.st44{fill:#ffa34e}.st45{fill:#ff8c51}.st46{fill:#ff7941}.st47{fill:#e69f5f}.st48{fill:#e09156}.st49{fill:#d4445a}.st50{fill:#1179a2}.st51{fill:#ff9b4f}.st52{fill:#8f6951}.st53{fill:#ad8366}.st54{fill:#95b995}.st55{fill:#80a68b}</style><g><path d="M275.2,47.5l14.3-2.6c1.2,4.1,4.3,6.1,9.3,6.1c3.9,0,5.8-1,5.8-3.1c0-1.1-0.4-1.9-1.3-2.5 c-0.9-0.6-2.5-1.1-4.8-1.6c-8.8-1.7-14.5-3.9-17-6.6c-2.5-2.7-3.8-5.9-3.8-9.6c0-4.7,1.8-8.7,5.4-11.8c3.6-3.1,8.8-4.7,15.5-4.7 c10.2,0,17,4.1,20.3,12.3l-12.8,3.9c-1.3-3.4-4-5-8.1-5c-3.4,0-5,1-5,3.1c0,0.9,0.4,1.7,1.1,2.2c0.8,0.5,2.2,1,4.4,1.5 c6,1.3,10.3,2.4,12.8,3.4c2.5,1,4.6,2.7,6.3,5c1.7,2.4,2.5,5.2,2.5,8.4c0,5.1-2.1,9.2-6.2,12.4c-4.1,3.2-9.5,4.7-16.2,4.7 C285.6,62.8,278,57.7,275.2,47.5z" class="st0"/><path d="M348.8,24.6v9.5h-7.5V48c0,1.9,0.4,3,1.1,3.4c0.7,0.4,1.4,0.5,2.2,0.5c1.2,0,2.6-0.2,4.2-0.6v10.5 c-2.9,0.6-5.7,0.8-8.5,0.8c-4.5,0-7.8-1-10-2.9c-2.1-1.9-3.2-5-3.2-9.3l0-4.4V34.1h-5.6v-9.5h5.6l0.2-12.2l14-0.2v12.4H348.8z" class="st0"/><path d="M390.1,24.6v37.5h-13.6v-6.2c-2,4.6-5.9,6.9-11.6,6.9c-3.6,0-6.3-1-8.3-3c-2-2-2.9-4.8-2.9-8.5V24.6h14.7v23.6 c0,1.5,0.2,2.5,0.6,3.1c0.4,0.6,1.2,0.9,2.4,0.9c1.3,0,2.3-0.4,3.1-1.3c0.8-0.9,1.2-2.2,1.2-3.8V24.6H390.1z" class="st0"/><path d="M434.5,62.1h-13.8v-5c-2,3.8-5.4,5.7-10.1,5.7c-4.3,0-7.8-1.7-10.5-5.1c-2.7-3.4-4-8.3-4-14.7 c0-6,1.4-10.8,4.1-14.3c2.7-3.5,6.3-5.3,10.7-5.3c3.7,0,6.8,1.4,9.2,4.2V11.8h14.5V62.1z M420,38c0-3.4-1.4-5-4.2-5 c-1.9,0-3.2,1.1-3.8,3.2c-0.6,2.1-0.9,4.8-0.9,7.8c0,6.1,1.5,9.1,4.6,9.1c1.2,0,2.2-0.5,3-1.4c0.8-1,1.2-2.4,1.2-4.4V38z" class="st0"/><path d="M467,48.6l13.7,0.9c-0.8,3.7-2.9,6.8-6.2,9.4c-3.3,2.6-7.8,3.9-13.5,3.9c-6.3,0-11.3-1.8-15.1-5.5 c-3.8-3.6-5.6-8.2-5.6-13.6c0-5.6,1.9-10.3,5.6-14.2c3.7-3.9,8.7-5.8,14.8-5.8c6,0,10.8,1.8,14.5,5.5c3.7,3.6,5.5,8.6,5.5,14.8 c0,0.5,0,1.2,0,2.1h-25.1c0,2.4,0.5,4.1,1.3,5.3c0.8,1.1,2.3,1.7,4.5,1.7C464.5,53.2,466.4,51.7,467,48.6z M466,38.9 c0-2.5-0.5-4.2-1.5-5.1c-1-0.9-2.2-1.3-3.7-1.3c-3.5,0-5.2,2.1-5.2,6.4H466z" class="st0"/><path d="M523,62.1h-14.7V38.5c0-1.9-0.3-3.2-0.9-3.7c-0.6-0.5-1.4-0.8-2.3-0.8c-2.7,0-4,1.9-4,5.6v22.5h-14.7V24.6 h13.6v5.3c2-4.1,5.6-6.1,10.8-6.1c2.7,0,5,0.5,6.9,1.6c1.9,1,3.2,2.4,4,4.1s1.2,4.5,1.2,8.6V62.1z" class="st0"/><path d="M553.9,24.6v9.5h-7.5V48c0,1.9,0.4,3,1.1,3.4c0.7,0.4,1.4,0.5,2.2,0.5c1.2,0,2.6-0.2,4.2-0.6v10.5 c-2.9,0.6-5.7,0.8-8.5,0.8c-4.5,0-7.8-1-10-2.9c-2.1-1.9-3.2-5-3.2-9.3l0-4.4V34.1h-5.6v-9.5h5.6l0.2-12.2l14-0.2v12.4H553.9z" class="st0"/><path d="M555.5,51.5l11.6-1.6c0.7,2.7,3.3,4.1,7.9,4.1c3.8,0,5.7-0.7,5.7-2.2c0-0.6-0.4-1.1-1.1-1.5 c-0.7-0.4-2.5-0.7-5.2-1.1c-7.6-1.1-12.4-2.7-14.3-5c-1.9-2.2-2.8-4.7-2.8-7.5c0-3.8,1.6-6.9,4.8-9.3s7.4-3.6,12.6-3.6 c9.1,0,14.9,3.3,17.4,9.8l-11.1,2.1c-1-2.2-3.2-3.3-6.5-3.3c-1.6,0-2.7,0.2-3.5,0.6c-0.8,0.4-1.2,0.9-1.2,1.3c0,1.2,1.2,2,3.5,2.2 c6.1,0.7,10.3,1.4,12.5,2.1c2.2,0.7,4.1,2,5.6,3.9c1.5,1.9,2.3,4.2,2.3,6.9c0,4.1-1.7,7.4-5.1,9.8c-3.4,2.4-8.1,3.6-14.2,3.6 C564.2,62.8,557.9,59,555.5,51.5z" class="st0"/><path d="M615,43.8v18.3h-15.7V11.8h21.5c5.4,0,9.4,0.6,12.2,1.8c2.8,1.2,5,3.1,6.6,5.6c1.6,2.5,2.5,5.4,2.5,8.5 c0,4.8-1.7,8.7-5,11.6c-3.3,2.9-7.8,4.4-13.4,4.4H615z M614.8,33h5.2c4.5,0,6.8-1.7,6.8-5c0-3.1-2.1-4.7-6.3-4.7h-5.7V33z" class="st1"/><path d="M684.4,62.1h-14c-0.3-1.6-0.5-3.3-0.5-5.2c-2.7,4-6.7,6-12,6c-4.4,0-7.7-1.1-9.9-3.4c-2.2-2.3-3.3-4.9-3.3-7.8 c0-4,1.8-7.2,5.4-9.6c3.6-2.4,10-3.9,19.1-4.4v-0.8c0-1.6-0.4-2.7-1.1-3.3c-0.7-0.5-1.8-0.8-3.3-0.8c-3.4,0-5.3,1.4-5.7,4.1 l-13.4-1.3c1.9-7.8,8.4-11.8,19.6-11.8c3,0,5.8,0.3,8.3,0.9c2.5,0.6,4.5,1.5,6,2.8c1.5,1.3,2.5,2.6,3,4.1c0.5,1.4,0.8,4.2,0.8,8.2 v15C683.2,57.6,683.6,60.1,684.4,62.1z M669.1,44.5c-6.3,0.7-9.4,2.7-9.4,6c0,2.3,1.2,3.4,3.7,3.4c1.6,0,2.9-0.5,4-1.4 c1.1-0.9,1.7-3,1.7-6.2V44.5z" class="st1"/><path d="M724.8,24.6l-14.7,40.6c-1.1,3.1-2.8,5.5-4.9,7.2c-2.1,1.7-5.4,2.6-9.8,2.6c-1.1,0-3.5-0.1-7.4-0.3V64.2 c1.9,0.3,3.7,0.4,5.3,0.4c4.2,0,6.3-0.9,6.3-2.8c0-0.6-0.2-1.5-0.6-2.5l-13.4-34.7h15.7l6.2,20l6.5-20H724.8z" class="st1"/></g><g><g><path d="M993.8,37C993.8,37,993.8,37,993.8,37c0.5-0.5,0.8-1.1,0.8-1.8c0-0.7-0.3-1.3-0.9-1.7 c0.4-0.4,0.7-0.9,0.7-1.6c0-0.9-0.5-1.6-1.2-1.9c0.3-0.4,0.5-0.8,0.5-1.4c0-1-0.7-1.9-1.7-2.1c0.3-0.4,0.5-0.8,0.5-1.3 c0-1.2-1-2.1-2.1-2.1c-0.1,0-0.2,0-0.3,0c0.2-0.3,0.3-0.7,0.3-1.1c0-1.2-1-2.1-2.1-2.1c-0.2,0-0.4,0-0.6,0.1 c0.1-0.2,0.1-0.4,0.1-0.7c0-1.2-1-2.1-2.1-2.1c-0.1,0-0.1,0-0.2,0c0-1.2-1-2.1-2.1-2.1c-0.2,0-0.4,0-0.5,0.1 c-2.1-1.6-6.5-2.8-8.4-2.8c-2,0-3.3,0.3-4.2,0.5c-0.8,0.2-1.6,0.2-2.4,0c-0.9-0.3-2.2-0.5-4.2-0.5c-1.9,0-6.3,1.2-8.4,2.8 c-0.2,0-0.4-0.1-0.5-0.1c-1.2,0-2.1,0.9-2.1,2.1c-0.1,0-0.1,0-0.2,0c-1.2,0-2.1,1-2.1,2.1c0,0.2,0,0.5,0.1,0.7 c-0.2-0.1-0.4-0.1-0.6-0.1c-1.2,0-2.1,1-2.1,2.1c0,0.4,0.1,0.8,0.3,1.1c-0.1,0-0.2,0-0.3,0c-1.2,0-2.1,1-2.1,2.1 c0,0.5,0.2,1,0.5,1.3c-1,0.2-1.7,1.1-1.7,2.1c0,0.5,0.2,1,0.5,1.4c-0.7,0.3-1.2,1.1-1.2,1.9c0,0.6,0.3,1.2,0.7,1.6 c-0.5,0.4-0.9,1-0.9,1.7c0,0.7,0.3,1.3,0.8,1.7c0,0,0,0.1,0,0.1c-0.4,0.4-0.7,1-0.7,1.6c0,0.9,0.5,1.6,1.3,2 c-0.3,0.4-0.5,0.8-0.5,1.3c0,1.1,0.8,2,1.9,2.1c-0.1,0.3-0.2,0.6-0.2,0.9c0,1.2,1,2.1,2.1,2.1c0.2,0,0.4,0,0.5-0.1 c-0.1,0.2-0.1,0.4-0.1,0.6c0,1.2,1,2.1,2.1,2.1c0.6,0,1.1-0.2,1.4-0.6c0,0.1,0,0.1,0,0.2c0,1.2,1,2.1,2.1,2.1 c0.8,0,1.5-0.5,1.9-1.1c0.2,1,1.1,1.7,2.1,1.7c0.9,0,1.7-0.6,2-1.4c0.4,0.8,1.3,1.4,2.4,1.2h12.9c1,0.2,1.9-0.3,2.4-1.2 c0.3,0.8,1.1,1.4,2,1.4c1,0,1.9-0.7,2.1-1.7c0.4,0.7,1.1,1.1,1.9,1.1c1.2,0,2.1-1,2.1-2.1c0-0.1,0-0.1,0-0.2 c0.4,0.4,0.9,0.6,1.4,0.6c1.2,0,2.1-1,2.1-2.1c0-0.2,0-0.4-0.1-0.6c0.2,0,0.4,0.1,0.5,0.1c1.2,0,2.1-1,2.1-2.1 c0-0.3-0.1-0.6-0.2-0.9c1.1-0.1,1.9-1,1.9-2.1c0-0.5-0.2-1-0.5-1.3c0.8-0.3,1.3-1.1,1.3-2C994.5,38,994.3,37.4,993.8,37z" class="st2"/><path d="M982.3,56.7l-5.4-2c-0.9-0.3-1.5-1.1-1.5-2v-3.5l4.6-1.9c2.4-1,4-3.3,4-5.9v-1.1c1.8,0,3.2-1.4,3.2-3.2 c0-1.8-1.4-3.2-3.2-3.2v-2.1c0-3-2.4-5.4-5.4-5.4h-19.3c-3,0-5.4,2.4-5.4,5.4v2.1c-1.8,0-3.2,1.4-3.2,3.2c0,1.8,1.4,3.2,3.2,3.2 v1.1c0,2.6,1.6,4.9,4,5.9l4.6,1.9v3.5c0,0.9-0.6,1.7-1.5,2l-5.4,2c-3,1.1-4.9,3.9-4.9,7.1v8.7c0,1.2,1,2.1,2.1,2.1H985 c1.2,0,2.1-1,2.1-2.1v-8.7C987.2,60.6,985.2,57.8,982.3,56.7z" class="st3"/><g><path d="M962.5,49.1v3.6c0,0.8-0.4,1.5-1,1.8c9,1.6,13.9-5.4,13.9-5.4H962.5z" class="st4"/></g><path d="M984,33.8v-2.1c0-3-2.4-5.4-5.4-5.4h-19.3c-3,0-5.4,2.4-5.4,5.4v9.7c0,2.6,1.6,4.9,4,5.9l6.9,2.9 c1.3,0.5,2.7,0.8,4.1,0.8l0,0c1.4,0,2.8-0.3,4.1-0.8l6.9-2.9c2.4-1,4-3.3,4-5.9v-1.1c1.8,0,3.2-1.4,3.2-3.2 C987.2,35.3,985.7,33.8,984,33.8z" class="st5"/><path d="M961.4,38.2L961.4,38.2c-0.6,0-1.1-0.5-1.1-1.1V36c0-0.6,0.5-1.1,1.1-1.1l0,0c0.6,0,1.1,0.5,1.1,1.1v1.1 C962.5,37.7,962,38.2,961.4,38.2z" class="st6"/><path d="M976.4,38.2L976.4,38.2c-0.6,0-1.1-0.5-1.1-1.1V36c0-0.6,0.5-1.1,1.1-1.1l0,0c0.6,0,1.1,0.5,1.1,1.1v1.1 C977.5,37.7,977,38.2,976.4,38.2z" class="st6"/><path d="M968.9,45.7c-1.9,0-3.7-0.5-4.9-1.3c-0.5-0.3-0.6-1-0.3-1.5c0.3-0.5,1-0.6,1.5-0.3c0.8,0.6,2.2,0.9,3.7,0.9 c1.5,0,2.8-0.3,3.7-0.9c0.5-0.3,1.2-0.2,1.5,0.3c0.3,0.5,0.2,1.2-0.3,1.5C972.6,45.2,970.8,45.7,968.9,45.7z" class="st4"/><path d="M959.5,45.1c-0.9-0.9-1.3-2.2-1.3-3.4V26.5c-2.4,0.5-4.3,2.7-4.3,5.3v2.1c-1.8,0-3.2,1.4-3.2,3.2 c0,1.8,1.4,3.2,3.2,3.2v1.1c0,2.6,1.6,4.9,4,5.9l6.9,2.9c0.3,0.1,0.7,0.3,1,0.4C962.8,48.3,960.7,46.4,959.5,45.1z" class="st3"/><path d="M982.7,55.8c-0.5-0.3-1.2-0.1-1.5,0.4l-0.8,1.3c-2.5,4-6.8,6.4-11.5,6.4l0,0c-4.7,0-9-2.4-11.5-6.4l-0.8-1.3 c-0.3-0.5-1-0.7-1.5-0.4l-3.5,2.1c-0.5,0.3-0.7,1-0.4,1.5l4.8,7.7h25.8l4.8-7.7c0.3-0.5,0.2-1.2-0.4-1.5L982.7,55.8z" class="st7"/><path d="M985.6,57.5l-1.8-1.1l-5.1,8.1c-1,1.6-2.7,2.5-4.6,2.5h-10.3c-1.9,0-3.6-1-4.6-2.5l-5.1-8.1l-1.8,1.1l4.9,7.9 c0.4,0.7-0.1,1.6-0.9,1.6h-0.3v7.5h25.8v-7.5h-0.3c-0.8,0-1.4-0.9-0.9-1.6L985.6,57.5z" class="st8"/></g></g><g><g><path d="M887.3,10.4L887.3,10.4c-10.7,0-21.2,8.1-21.2,18.9c0,14.4,7.8,21.2,7.8,21.2s-1.6,3.3-2.1,6.3h5.8 c-0.5-3.1-0.4-6.3-0.4-6.3s30.1-5.5,30.1-21.2C907.3,18.7,898,10.4,887.3,10.4z" class="st9"/><path d="M896.6,12.6c-2.8-1.4-6-2.2-9.3-2.2h0c-10.7,0-21.2,8.1-21.2,18.9c0,14.4,7.8,21.2,7.8,21.2 s-1.6,3.3-2.1,6.3h5.8c-0.5-3.1-0.4-6.3-0.4-6.3s3.2-0.6,7.5-1.9l-15.3-15.1C869.4,33.5,891.6,25.8,896.6,12.6z" class="st10"/><path d="M908.3,68l-0.2-0.7c-0.1-0.4-0.4-0.6-0.8-0.5l-0.7-5.6c-0.2-1.8-1.4-3.4-3.2-4.4l-2.2-1.1 c-0.4-0.2-0.6,0.1-0.9,0.3l-4.8-1.8c-0.9-0.3-1.5-1.2-1.5-2.1v-3.6l4.8-2c2.5-1,4.1-3.5,4.1-6.2v-1.1c1.8,0,3.3-1.5,3.3-3.3 s-1.5-3.3-3.3-3.3v-2.2c0-3.1-2.5-7.8-5.6-7.8h-20c-3.1,0-5.6,4.7-5.6,7.8v2.2c-1.8,0-3.3,1.5-3.3,3.3s1.5,3.3,3.3,3.3v1.1 c0,2.7,1.6,5.1,4.1,6.2l4.8,2v3.6c0,1-0.6,1.8-1.5,2.1l-4.8,1.8c-0.3-0.3-0.5-0.5-0.9-0.3l-2.2,1.1c-1.9,0.9-3,2.5-3.2,4.4 l-0.7,5.6c-0.4,0-0.7,0.2-0.8,0.5l-0.2,0.7c-0.1,0.4,0.1,0.8,0.5,0.9l1.6,0.5v3.3c0,1.2,1,2.2,2.2,2.2h4.5h24.5h4.5 c1.2,0,2.2-1,2.2-2.2v-3.3l1.6-0.5C908.2,68.8,908.4,68.4,908.3,68z" class="st11"/><path d="M893.9,48.6l-13.4,0v3.7c0,0.8-0.4,1.5-1.1,1.9C888.8,55.8,893.9,48.6,893.9,48.6z" class="st12"/><g><path d="M906.6,61.2c-0.2-1.8-1.4-3.4-3.2-4.4l-2.2-1.1c-0.2-0.1-0.5-0.1-0.7,0.2c-6,7.1-13.2,10.2-13.2,10.2h0h0 c0,0-7.2-3.1-13.2-10.2c-0.2-0.2-0.5-0.3-0.7-0.2l-2.2,1.1c-1.9,0.9-3,2.5-3.2,4.4L867,68c2.9,1,8,2.5,8,2.5V75h24.5v-4.5 c0,0,5-1.5,8-2.5L906.6,61.2z" class="st13"/></g><path d="M903,32.7v-2.2c-0.1-3.1-5.7-7.8-5.7-7.8h-20c-3.1,0-5.6,4.7-5.6,7.8v2.2c-1.8,0-3.3,1.5-3.3,3.3 c0,1.8,1.5,3.3,3.3,3.3v2.9c0,1.6,1,3.1,2.5,3.7l8.8,3.7c1.4,0.6,2.8,0.9,4.3,0.9l0,0c1.5,0,2.9-0.3,4.3-0.9l8.8-3.7 c1.5-0.6,2.5-2.1,2.5-3.7v-2.8c0,0,3.3-1.5,3.3-3.3C906.2,34.2,904.7,32.7,903,32.7z" class="st14"/><g><path d="M895.1,37.2L895.1,37.2c-0.6,0-1.1-0.5-1.1-1.1v-1.1c0-0.6,0.5-1.1,1.1-1.1l0,0c0.6,0,1.1,0.5,1.1,1.1V36 C896.2,36.7,895.7,37.2,895.1,37.2z" class="st6"/></g><g><g><path d="M887.3,45c-2,0-3.8-0.5-5.1-1.3c-0.5-0.3-0.6-1-0.3-1.5c0.3-0.5,1-0.6,1.5-0.3c0.9,0.6,2.3,1,3.8,1 s3-0.4,3.8-1c0.5-0.3,1.2-0.2,1.5,0.3c0.3,0.5,0.2,1.2-0.3,1.5C891.1,44.5,889.2,45,887.3,45z" class="st15"/></g></g><path d="M871.7,32.7c-1.8,0-3.3,1.5-3.3,3.3s1.5,3.3,3.3,3.3v1.1c0,2.7,1.6,5.1,4.1,6.2l7.2,3 c0.4,0.1,0.7,0.3,1.1,0.4c-3.2-2.3-5.3-4.4-6.5-5.7c-0.9-1-1.4-2.2-1.4-3.6v-5.9c0,0,18.6-2.3,23.4-10c0.3-0.5,0.5-0.9,0.6-1.2 C889.2,29.9,871.7,32.7,871.7,32.7z" class="st11"/><g><path d="M875,70.2c-0.1-1.3-0.5-2.6-1.3-3.7l-5.2-7c-0.3,0.5-0.4,1.1-0.5,1.7l-0.9,6.6L875,70.2z" class="st16"/></g><g><path d="M866.2,68.1c-0.1,0.4,0.1,0.8,0.5,0.9l8.3,2.4v-0.8c0-0.5-0.1-1-0.2-1.5l-7.5-2.2c-0.4-0.1-0.8,0.1-0.9,0.5 L866.2,68.1z" class="st17"/></g><g><path d="M899.5,70.2c0.1-1.3,0.5-2.6,1.3-3.7l5.2-7c0.3,0.5,0.4,1.1,0.5,1.7l0.9,6.6L899.5,70.2z" class="st16"/></g><g><path d="M908.3,68.1c0.1,0.4-0.1,0.8-0.5,0.9l-8.3,2.4v-0.8c0-0.5,0.1-1,0.2-1.5l7.5-2.2c0.4-0.1,0.8,0.1,0.9,0.5 L908.3,68.1z" class="st17"/></g><g><path d="M877.2,51.6h-3.3c-0.6,0-1.1-0.5-1.1-1.1l0,0c0-0.6,0.5-1.1,1.1-1.1h3.3c0.6,0,1.1,0.5,1.1,1.1l0,0 C878.4,51.1,877.9,51.6,877.2,51.6z" class="st17"/></g><path d="M869.4,22.2v11.3c17.4-2.1,25.6-5.7,29.4-8.2c0.3,4.1,0.2,10.2-1.7,16.3c0,0,6.7-9.3,5.6-19.3L869.4,22.2 L869.4,22.2z" class="st9"/><g><path d="M879.5,37.2L879.5,37.2c-0.6,0-1.1-0.5-1.1-1.1v-1.1c0-0.6,0.5-1.1,1.1-1.1l0,0c0.6,0,1.1,0.5,1.1,1.1V36 C880.6,36.7,880.1,37.2,879.5,37.2z" class="st6"/></g><path d="M869.4,22.2v11.3l0,0c0,0,11.6-4.1,19.9-11.3C889.3,22.2,869.4,22.2,869.4,22.2z" class="st10"/></g></g><g><g><path d="M831.4,20.8c0-5.7-3.2-9.9-8.8-9.9c-2.8,0-5.1,1.2-6.6,2.3c-0.4-0.3-1-0.3-1.4,0.1c-0.3,0.2-0.4,0.6-0.4,0.9 c-2.7-2.2-5.7-3.3-7.1-3.3c-3.6,0-5.5,1.1-5.5,1.1s-1.9-1.1-5.5-1.1c-1.4,0-4.3,1.1-7.1,3.3c0-0.3-0.1-0.7-0.4-0.9 c-0.4-0.4-1-0.4-1.4-0.1c-1.5-1.1-3.7-2.3-6.6-2.3c-5.6,0-8.8,4.2-8.8,9.9c0,5.8,6.4,21.3,3.3,30.8c0,0,7.2-2.5,10.4-12.2 c0.2,0,0.4,0.1,0.6,0.1v1.1c0,2.7,1.6,5.1,4.1,6.1l4.7,2v3.5c0,0.9-0.6,1.8-1.5,2.1l-4.4,1.6l-0.1-0.1c-0.3-0.5-1-0.7-1.5-0.4 l-3.6,2.2c-0.5,0.3-0.7,0.9-0.4,1.4c-0.5,0.7-0.8,1.6-1,2.5l-1.3,9.5c-0.3,2,1.3,3.7,3.3,3.7h34.3c2,0,3.5-1.8,3.3-3.7l-1.3-9.5 c-0.1-0.9-0.5-1.7-1-2.5c0.2-0.5,0.1-1.1-0.4-1.4l-3.6-2.2c-0.5-0.3-1.2-0.1-1.5,0.4l-0.1,0.1l-4.4-1.6c-0.9-0.3-1.5-1.1-1.5-2.1 v-3.5l4.7-2c2.5-1,4.1-3.4,4.1-6.1v-1.1c0.2,0,0.4,0,0.6-0.1c3.2,9.7,10.4,12.2,10.4,12.2C824.9,42.1,831.4,26.6,831.4,20.8z" class="st11"/><path d="M808.2,48.6H795v3.6l0,0v0c0,0.1,0,0.1,0,0.2c0,0,0,0.1,0,0.1c0,0,0,0,0,0.1c0,0,0,0.1,0,0.1c0,0,0,0,0,0 c-0.1,0.6-0.5,1.1-1,1.4C803.2,55.7,808.2,48.6,808.2,48.6z" class="st12"/><g><path d="M813.7,15.3c0,0,3.2-4.4,8.8-4.4s8.8,4.2,8.8,9.9c0,5.8-6.4,21.3-3.3,30.8c0,0-8.3-2.8-11-14.3 c-2.5-10.5,1.1-17.6,1.1-17.6L813.7,15.3z" class="st18"/></g><g><path d="M817.6,16.4c0,0,3.5-2.6,6.1-1.1c5.6,3.3,1,12.5,0,17.6c-1.4,6.9-0.8,13.5,4.4,18.7c0,0-8.3-2.8-11-14.3 c-2.5-10.5,0.6-17.6,0.6-17.6V16.4z" class="st19"/></g><g><path d="M818.7,17.9L818.7,17.9c0.5-0.4,0.5-1.1,0.1-1.6l-2.7-3c-0.4-0.5-1.1-0.5-1.6-0.1l0,0 c-0.5,0.4-0.5,1.1-0.1,1.6l2.7,3C817.5,18.2,818.2,18.3,818.7,17.9z" class="st20"/></g><g><path d="M789.5,15.3c0,0-3.2-4.4-8.8-4.4s-8.8,4.2-8.8,9.9c0,5.8,6.4,21.3,3.3,30.8c0,0,8.3-2.8,11-14.3 c2.5-10.5-1.1-17.6-1.1-17.6L789.5,15.3z" class="st18"/></g><g><path d="M785.8,16.4c0,0-3.6-2.6-6.2-1.1c-5.6,3.3-1,12.5,0,17.6c1.4,6.9,0.8,13.5-4.4,18.7c0,0,8.3-2.8,11-14.3 c2.5-10.5-0.4-17.6-0.4-17.6V16.4z" class="st19"/></g><g><path d="M784.5,17.9L784.5,17.9c-0.5-0.4-0.5-1.1-0.1-1.6l2.7-3c0.4-0.5,1.1-0.5,1.6-0.1l0,0 c0.5,0.4,0.5,1.1,0.1,1.6l-2.7,3C785.7,18.2,785,18.3,784.5,17.9z" class="st20"/></g><path d="M817.1,32.9v-2.2c0-3-2.5-7.7-5.5-7.7h-19.8c-3,0-5.5,4.7-5.5,7.7v2.2c-1.8,0-3.3,1.5-3.3,3.3 c0,1.8,1.5,3.3,3.3,3.3v1.1c0,2.7,1.6,5.1,4.1,6.1l7.1,3c1.3,0.6,2.8,0.8,4.2,0.8l0,0c1.5,0,2.9-0.3,4.2-0.8l7.1-3 c2.5-1,4.1-3.4,4.1-6.1v-1.1c1.8,0,3.3-1.5,3.3-3.3S818.9,32.9,817.1,32.9z" class="st14"/><g><path d="M793.9,37.3L793.9,37.3c-0.6,0-1.1-0.5-1.1-1.1v-1.1c0-0.6,0.5-1.1,1.1-1.1l0,0c0.6,0,1.1,0.5,1.1,1.1v1.1 C795,36.8,794.5,37.3,793.9,37.3z" class="st6"/></g><g><path d="M809.4,37.3L809.4,37.3c-0.6,0-1.1-0.5-1.1-1.1v-1.1c0-0.6,0.5-1.1,1.1-1.1l0,0c0.6,0,1.1,0.5,1.1,1.1v1.1 C810.5,36.8,810,37.3,809.4,37.3z" class="st6"/></g><g><g><path d="M801.6,45c-2,0-3.8-0.5-5-1.3c-0.5-0.3-0.6-1-0.3-1.5c0.3-0.5,1-0.6,1.5-0.3c0.9,0.6,2.3,0.9,3.8,0.9 s2.9-0.4,3.8-0.9c0.5-0.3,1.2-0.2,1.5,0.3c0.3,0.5,0.2,1.2-0.3,1.5C805.4,44.6,803.5,45,801.6,45z" class="st15"/></g></g><path d="M786.2,32.9c-1.8,0-3.3,1.5-3.3,3.3c0,1.8,1.5,3.3,3.3,3.3v1.1c0,2.7,1.6,5.1,4.1,6.1l7.1,3 c0.3,0.1,0.7,0.3,1.1,0.4c-3.1-2.3-5.2-4.3-6.4-5.6c-0.9-1-1.4-2.2-1.4-3.5v-6.2c3.2-1.1,12-4.7,12.1-10.6c0-1.4-0.1-2.8-0.2-3.6 C800.9,29.3,787.3,32.9,786.2,32.9z" class="st11"/><g><path d="M814.2,55.8l-4,6.3c-0.6,1-1.7,1.6-2.8,1.6h-11.7c-1.1,0-2.2-0.6-2.8-1.6l-4-6.3c-0.3-0.5-1-0.7-1.5-0.4 l-3.6,2.2c-0.5,0.3-0.7,1-0.4,1.5l4.9,7.9h26.4l4.9-7.9c0.3-0.5,0.2-1.2-0.4-1.5l-3.6-2.2C815.2,55.1,814.5,55.3,814.2,55.8z" class="st21"/></g><g><rect width="26.4" height="7.7" x="788.4" y="67" class="st20"/></g><path d="M807.1,10.9c-3.6,0-5.5,1.1-5.5,1.1s-1.9-1.1-5.5-1.1s-17.2,6.9-12.1,22.8c0,0,17.6-3.1,17.6-10.7 c0,7.6,17.6,10.7,17.6,10.7C824.2,17.8,810.7,10.9,807.1,10.9z" class="st18"/><g><path d="M801.6,12L801.6,12c0,0-1.9-1.1-5.5-1.1c-3.6,0-17.2,6.9-12.1,22.8c0,0,2.1-0.4,4.9-1.2 C785.8,18.2,798.2,12,801.6,12z" class="st22"/></g></g></g><g><g><path d="M780.7,71.5l-1.5-11.9c-0.2-1.8-1.5-3.3-3.2-3.9l-5.8-1.9c-0.8-0.3-1.7-0.1-2.3,0.4l-1.7-0.6 c-1-0.3-1.6-1.2-1.6-2.2v-3.8l5.1-2.1c2.6-1.1,4.4-3.7,4.4-6.5v-1.2c2,0,3.5-1.6,3.5-3.5c0-0.9-0.3-1.7-0.9-2.3 c1-3.6,3.8-15.2,0.9-20.1l1.2-4.7c0,0-12.4,0.3-18.9,2.4l2.4-2.4c0,0-16.6,0-20.1,5.9l0,0c0,0-5.9,0-5.9,7.1 c0,2.6,1.5,9.1,2.1,11.8c-0.6,0.6-0.9,1.5-0.9,2.4c0,2,1.6,3.5,3.5,3.5v1.2c0,2.9,1.7,5.4,4.4,6.5l5.1,2.1v3.8 c0,1-0.6,1.9-1.6,2.2l-1.7,0.6c-0.6-0.5-1.5-0.7-2.3-0.4l-5.8,1.9c-1.7,0.6-3,2.1-3.2,3.9l-1.5,11.9c-0.3,2.1,1.4,4,3.5,4h0h39.1 h0C779.3,75.5,780.9,73.6,780.7,71.5z" class="st11"/><g><path d="M764.6,47.5l-14.2,0v3.8c0,0.8-0.5,1.6-1.2,2C759.2,55,764.6,47.5,764.6,47.5z" class="st12"/></g><g><path d="M738.8,33c0,0-2.4-9.7-2.4-13c0-7.1,5.9-7.1,5.9-7.1l0,0c3.5-5.9,20.1-5.9,20.1-5.9L760,9.4 c6.5-2.1,18.9-2.4,18.9-2.4l-1.2,4.7c3.5,5.9-1.2,21.2-1.2,21.2H738.8z" class="st23"/></g><g><path d="M762.3,7c0,0-16.6,0-20.1,5.9l0,0c0,0-5.9,0-5.9,7.1c0,3.3,2.4,13,2.4,13s24.5-11,40.1-26 c0,0-12.4,0.3-18.9,2.4L762.3,7z" class="st6"/></g><path d="M774.1,30.6v-2.4c0-3.3-2.6-5.9-5.9-5.9H747c-3.3,0-5.9,2.6-5.9,5.9v2.4c-2,0-3.5,1.6-3.5,3.5 s1.6,3.5,3.5,3.5v1.2c0,2.9,1.7,5.4,4.4,6.5l7.6,3.2c1.4,0.6,3,0.9,4.5,0.9l0,0c1.6,0,3.1-0.3,4.5-0.9l7.6-3.2 c2.6-1.1,4.4-3.7,4.4-6.5v-1.2c2,0,3.5-1.6,3.5-3.5S776,30.6,774.1,30.6z" class="st14"/><g><path d="M749.3,35.3L749.3,35.3c-0.6,0-1.2-0.5-1.2-1.2V33c0-0.6,0.5-1.2,1.2-1.2l0,0c0.6,0,1.2,0.5,1.2,1.2v1.2 C750.5,34.8,750,35.3,749.3,35.3z" class="st6"/></g><g><path d="M765.8,35.3L765.8,35.3c-0.6,0-1.2-0.5-1.2-1.2V33c0-0.6,0.5-1.2,1.2-1.2l0,0c0.6,0,1.2,0.5,1.2,1.2v1.2 C767,34.8,766.5,35.3,765.8,35.3z" class="st6"/></g><g><g><path d="M757.6,43.6c-2.1,0-4.1-0.5-5.4-1.4c-0.5-0.4-0.7-1.1-0.3-1.6c0.4-0.5,1.1-0.7,1.6-0.3 c0.9,0.6,2.4,1,4.1,1s3.1-0.4,4.1-1c0.5-0.4,1.3-0.2,1.6,0.3c0.4,0.5,0.2,1.3-0.3,1.6C761.7,43.1,759.7,43.6,757.6,43.6z" class="st15"/></g></g><g><path d="M780.7,71.5l-1.5-11.9c-0.2-1.8-1.5-3.3-3.2-3.9l-5.8-1.9c-1-0.3-2.1,0-2.7,0.9c-2.1,3.3-5.8,5.5-10,5.5 s-7.9-2.2-10-5.5c-0.6-0.9-1.7-1.2-2.7-0.9l-5.8,1.9c-1.7,0.6-3,2.1-3.2,3.9l-1.5,11.9c-0.3,2.1,1.4,4,3.5,4h39.2 C779.3,75.5,781,73.6,780.7,71.5z" class="st24"/></g><g><path d="M736.9,57.2c-0.5,0.7-0.9,1.5-1,2.3l-1.5,11.9c-0.3,2.1,1.4,4,3.5,4h6.6v-7.7c0-1.1-0.4-2.2-1.2-3.1 L736.9,57.2z" class="st25"/></g><g><path d="M778.2,57.2c0.5,0.7,0.9,1.5,1,2.3l1.5,11.9c0.3,2.1-1.4,4-3.5,4h-6.6v-7.7c0-1.1,0.4-2.2,1.2-3.1 L778.2,57.2z" class="st25"/></g><path d="M747.2,43c-1-1-1.5-2.4-1.5-3.8V25.8c3.8-0.3,15.6-1.3,22.4-3.5H747c-0.4,0-0.8,0-1.2,0.1v0 c-2.7,0.5-4.7,2.9-4.7,5.8v2.4c-2,0-3.5,1.6-3.5,3.5s1.6,3.5,3.5,3.5v1.2c0,2.9,1.7,5.4,4.4,6.5l7.6,3.2c0.4,0.2,0.8,0.3,1.1,0.4 C750.8,46.6,748.6,44.4,747.2,43z" class="st11"/></g></g><g><g><path d="M844.7,47.8c-3.2,0-9.3,0.4-11.8,1.2l11.8,10.9l11.8-10.9C854.1,48.2,848,47.8,844.7,47.8z" class="st26"/><path d="M867.8,71l-1.5-12c-0.2-1.8-1.5-3.3-3.2-3.9l-4.3-1.4c0-0.1,0.2-1.1-1.1-2c-1-0.7,0.3-1.9-1.3-2.8l-4,3.6 c-0.5-0.4-0.8-1.1-0.8-1.7V47l5.1-2.1c2.6-1.1,4.4-3.7,4.4-6.5v-1.2c2,0,3.5-1.6,3.5-3.5c0-1-0.5-2-1.2-2.6l0.4-8.5 c0.4-7.4-5.5-13.7-13-13.7h-12.8c-7.4,0-13.4,6.2-13,13.7l0.4,8.5c-0.7,0.6-1.2,1.6-1.2,2.6c0,2,1.6,3.5,3.5,3.5v1.2 c0,2.9,1.7,5.4,4.4,6.5l5.1,2.1v3.8c0,0.7-0.3,1.3-0.8,1.7l-4-3.6c-1.6,0.8-0.2,2.1-1.3,2.8c-1.3,0.9-1.1,2-1.1,2l-4.3,1.4 c-1.7,0.6-3,2.1-3.2,3.9l-1.5,12c-0.3,2.1,1.4,4,3.5,4h39.2C866.4,75,868.1,73.1,867.8,71z" class="st27"/><g><path d="M838.3,8.9c-7.4,0-13.4,6.2-13,13.7l0.5,8.8h37.8l0.5-8.8c0.4-7.4-5.5-13.7-13-13.7H838.3z" class="st28"/></g><g><path d="M825.4,22.5l0.5,8.8h1.2h7.7c4.5-14,14.8-22.4,14.8-22.4h-11.1C830.9,8.9,825,15.1,825.4,22.5z" class="st29"/></g><g><path d="M867.8,71l-1.5-12c-0.2-1.8-1.5-3.3-3.2-3.9l-6.7-2.2c-0.5-0.2-1.1,0-1.4,0.5c-2,3.7-9.9,6.2-10.4,6.2 s-8.4-2.5-10.4-6.2c-0.3-0.5-0.9-0.7-1.4-0.5l-6.7,2.2c-1.7,0.6-3,2.1-3.2,3.9l-1.5,12c-0.3,2.1,1.4,4,3.5,4h39.2 C866.5,75,868.1,73.1,867.8,71z" class="st30"/></g><g><path d="M824,56.7c-0.5,0.7-0.9,1.5-1,2.3l-1.5,12c-0.3,2.1,1.4,4,3.5,4h6.6v-7.7c0-1.1-0.4-2.2-1.2-3.1L824,56.7z" class="st31"/></g><g><path d="M865.3,56.7c0.5,0.7,0.9,1.5,1,2.3l1.5,12c0.3,2.1-1.4,4-3.5,4h-6.6v-7.7c0-1.1,0.4-2.2,1.2-3.1L865.3,56.7 z" class="st31"/></g><g><path d="M851.8,47l-14.2-3.1v7c0,0.9-0.5,1.6-1.2,2C846.3,54.5,851.8,47,851.8,47z" class="st32"/></g><path d="M861.2,30.1v-2.4c0-3.3-2.6-5.9-5.9-5.9H834c-3.3,0-5.9,2.6-5.9,5.9v2.4c-2,0-3.5,1.6-3.5,3.5 s1.6,3.5,3.5,3.5v1.2c0,2.9,1.7,5.4,4.4,6.5l7.6,3.2c1.4,0.6,3,0.9,4.5,0.9l0,0c1.6,0,3.1-0.3,4.5-0.9l7.6-3.2 c2.6-1.1,4.4-3.7,4.4-6.5v-1.2c2,0,3.5-1.6,3.5-3.5S863.2,30.1,861.2,30.1z" class="st12"/><g><path d="M836.4,34.8L836.4,34.8c-0.6,0-1.2-0.5-1.2-1.2v-1.2c0-0.6,0.5-1.2,1.2-1.2l0,0c0.6,0,1.2,0.5,1.2,1.2v1.2 C837.6,34.2,837.1,34.8,836.4,34.8z" class="st6"/></g><g><path d="M852.9,34.8L852.9,34.8c-0.6,0-1.2-0.5-1.2-1.2v-1.2c0-0.6,0.5-1.2,1.2-1.2l0,0c0.6,0,1.2,0.5,1.2,1.2v1.2 C854.1,34.2,853.6,34.8,852.9,34.8z" class="st6"/></g><g><g><path d="M844.7,43.1c-2.1,0-4.1-0.5-5.4-1.4c-0.5-0.4-0.7-1.1-0.3-1.6c0.4-0.5,1.1-0.7,1.6-0.3 c0.9,0.6,2.4,1,4.1,1s3.1-0.4,4.1-1c0.5-0.4,1.3-0.2,1.6,0.3c0.4,0.5,0.2,1.3-0.3,1.6C848.8,42.6,846.8,43.1,844.7,43.1z" class="st32"/></g></g><path d="M839.5,31.3c6.7-4,10.2-9.3,10.2-9.3l-16.8,0c-2.7,0.5-4.7,2.9-4.7,5.8v2.4c-2,0-3.5,1.6-3.5,3.5 s1.6,3.5,3.5,3.5v1.2c0,2.9,1.7,5.4,4.4,6.5l7.6,3.2c0.4,0.2,0.8,0.3,1.1,0.4c-3.4-2.5-5.6-4.6-6.9-6c-1-1-1.5-2.4-1.5-3.8V28.1 L839.5,31.3z" class="st27"/><g><path d="M857.8,51.7c-1-0.7,0.3-1.9-1.3-2.8l-11.8,10.6l-11.8-10.6c-1.6,0.8-0.2,2.1-1.3,2.8c-1.3,0.9-1.1,2-1.1,2 l14.1,7.1v0l0,0l0.1,0v0l14.1-7.1C858.9,53.7,859.1,52.6,857.8,51.7z" class="st31"/></g><g><path d="M829.3,24.2l4.7,2.4l3.5-1.2l-1.2,2.4l2.4,1.2c0,0,4-2,8.3-6.6v5.5c0,0,3.2-0.1,4.7-1.2l1.2-4.7 c0,0,1.2,3.4,2.4,5.9l2.4-1.2v-7.1h-28.3V24.2z" class="st28"/></g><path d="M829.3,19.5v4.7l4.7,2.4l2.8-0.9c1.1-2.2,2.2-4.3,3.4-6.1L829.3,19.5z" class="st29"/></g></g><g><g><path d="M951.4,69l-0.1-0.9c0-0.4-0.4-0.6-0.7-0.6l-0.1,0l-1-8c-0.2-1.7-1.4-3.2-3.1-3.8l-5.6-1.9 c-0.8-0.3-1.6-0.1-2.2,0.4l-1.6-0.5c-0.9-0.3-1.6-1.2-1.6-2.2v-3.7l4.9-2c2.5-1.1,4.2-3.5,4.2-6.3v-1.1c1.9,0,3.4-1.5,3.4-3.4 c0-0.8-0.3-1.5-0.7-2.1c1-2.5,3.2-9.7,0.7-18.4c0,0-0.4-0.3-1.2-0.7c-0.2-2.6-1.1-3.8-1.1-3.8l-4.2,1.4c-3.6-1.3-8.7-2.5-15.2-2.5 c0,0-0.7,0.8-2.3,1.1c0,0-3.9-0.9-8-1.1l-2.3,5.7c0,0-5.7,0-5.7,6.8c0,2.5,1.4,8.8,2,11.4c-0.5,0.6-0.9,1.4-0.9,2.3 c0,1.9,1.5,3.4,3.4,3.4v1.1c0,2.8,1.7,5.2,4.2,6.3l4.9,2v3.7c0,1-0.6,1.9-1.6,2.2l-1.6,0.5c-0.6-0.5-1.4-0.7-2.2-0.4l-5.6,1.9 c-1.7,0.6-2.9,2-3.1,3.8l-1,8l-0.1,0c-0.4,0-0.7,0.2-0.7,0.6l-0.1,0.9c0,0.4,0.2,0.7,0.6,0.7l1.7,0.2v2.7c0,1.3,1,2.3,2.3,2.3 h36.5c1.3,0,2.3-1,2.3-2.3v-2.7l1.7-0.2C951.2,69.7,951.4,69.3,951.4,69z" class="st12"/><g><path d="M935.5,47.8h-13.7v3.8c0,0.8-0.5,1.5-1.1,1.9C930.2,55.1,935.5,47.8,935.5,47.8z" class="st33"/></g><path d="M944.6,31.5v-2.3c0-3.1-2.6-5.7-5.7-5.7h-20.5c-3.1,0-5.7,2.6-5.7,5.7v2.3c-1.9,0-3.4,1.5-3.4,3.4 s1.5,3.4,3.4,3.4v1.1c0,2.8,1.7,5.2,4.2,6.3l7.4,3.1c1.4,0.6,2.9,0.9,4.4,0.9l0,0c1.5,0,3-0.3,4.4-0.9l7.4-3.1 c2.5-1.1,4.2-3.5,4.2-6.3v-1.1c1.9,0,3.4-1.5,3.4-3.4S946.5,31.5,944.6,31.5z" class="st11"/><g><path d="M941.2,74.7V69h9.5l-1.2-9.5c-0.2-1.7-1.4-3.1-3.1-3.7l-5.6-1.8c-1-0.3-2.1,0-2.6,0.9 c-2,3.1-5.6,5.2-9.6,5.2c-4,0-7.6-2.1-9.6-5.2c-0.5-0.8-1.6-1.2-2.6-0.9l-5.6,1.8c-1.7,0.5-2.9,2-3.1,3.7l-1.1,8.5l9.4,0v6.7 H941.2z" class="st34"/></g><g><path d="M920.7,36L920.7,36c-0.6,0-1.1-0.5-1.1-1.1v-1.1c0-0.6,0.5-1.1,1.1-1.1l0,0c0.6,0,1.1,0.5,1.1,1.1v1.1 C921.8,35.5,921.3,36,920.7,36z" class="st6"/></g><g><path d="M936.6,36L936.6,36c-0.6,0-1.1-0.5-1.1-1.1v-1.1c0-0.6,0.5-1.1,1.1-1.1l0,0c0.6,0,1.1,0.5,1.1,1.1v1.1 C937.7,35.5,937.2,36,936.6,36z" class="st6"/></g><g><g><path d="M928.7,44c-2,0-3.9-0.5-5.2-1.4c-0.5-0.4-0.7-1.1-0.3-1.6c0.4-0.5,1.1-0.7,1.6-0.3c0.9,0.6,2.4,1,3.9,1 s3-0.4,3.9-1c0.5-0.4,1.2-0.2,1.6,0.3c0.4,0.5,0.2,1.2-0.3,1.6C932.6,43.5,930.7,44,928.7,44z" class="st15"/></g></g><path d="M918.7,43.4c-0.9-1-1.4-2.3-1.4-3.6V29.7c3.1-1.7,12.3-6.2,21.6-6.2h-20.5c-0.4,0-0.8,0-1.1,0.1v0 c-2.6,0.5-4.6,2.8-4.6,5.6v2.3c-1.9,0-3.4,1.5-3.4,3.4s1.5,3.4,3.4,3.4v1.1c0,2.8,1.7,5.2,4.2,6.3l7.4,3.1 c0.4,0.2,0.7,0.3,1.1,0.4C922.1,46.9,919.9,44.8,918.7,43.4z" class="st12"/><g><path d="M916.1,69.9v-2.6c0-1.1-0.4-2.2-1.1-3l-6.3-7.2c-0.5,0.6-0.8,1.4-0.9,2.3l-1.2,9.5 C908.4,69,913.2,69.6,916.1,69.9z" class="st35"/></g><g><path d="M916.1,68.4l-9.4-1c-0.4,0-0.7,0.2-0.7,0.6l-0.1,0.9c0,0.4,0.2,0.7,0.6,0.7l9.6,1.1V68.4z" class="st36"/></g><g><path d="M941.2,69.9v-2.6c0-1.1,0.4-2.2,1.1-3l6.3-7.2c0.5,0.6,0.8,1.4,0.9,2.3l1.2,9.5 C948.9,69,944.1,69.6,941.2,69.9z" class="st35"/></g><g><path d="M941.2,68.4l9.4-1c0.4,0,0.7,0.2,0.7,0.6l0.1,0.9c0,0.4-0.2,0.7-0.6,0.7l-9.6,1.1V68.4z" class="st36"/></g><g><path d="M948,14.4c0,0-0.4-0.3-1.2-0.7c-0.2-2.6-1.1-3.8-1.1-3.8l-4.2,1.4c-3.6-1.3-8.7-2.5-15.2-2.5 c0,0-0.7,0.8-2.3,1.1c0,0-3.9-0.9-8-1.1l-2.3,5.7c0,0-5.7,0-5.7,6.8c0,2.5,1.4,8.8,2,11.4c0.6-0.7,1.5-1.2,2.5-1.2v-2.3 c0-3.1,2.5-5.6,5.6-5.7c-0.9,1.9-1.1,3.4-1.1,3.4c2.8-1.9,6.6-3.4,11.4-3.4h10.3c3.1,0,5.7,2.6,5.7,5.7v2.3 c1.1,0,2.1,0.5,2.7,1.3C948.3,30.4,950.5,23.2,948,14.4z" class="st37"/></g><g><path d="M945.7,9.8l-4.2,1.4c-3.6-1.3-8.7-2.5-15.2-2.5c0,0-0.7,0.8-2.3,1.1c0,0-3.9-0.9-8-1.1l-2.3,5.7 c0,0-5.7,0-5.7,6.8c0,2.5,1.4,8.8,2,11.4c0.6-0.7,1.5-1.2,2.5-1.2v-2.3c0-3,2.3-5.4,5.2-5.6c-0.3,0.8-0.6,2.1-0.6,3.4 c4.5-5.7,10.9-7.8,15.9-9.1c5.1-1.4,5.7-3.4,5.7-3.4S943.9,14.1,945.7,9.8z" class="st28"/></g></g></g><g><g><path d="M178.5,71.4l-1.3-9.5c-0.3-2-1.6-3.7-3.6-4.5l-7.5-2.8c-0.9-0.3-1.5-1.1-1.5-2.1V49l4.8-2 c2.5-1,4.1-3.4,4.1-6.1v-1.1c1.8,0,3.3-1.5,3.3-3.3s-1.5-3.3-3.3-3.3v-2.2c0-3-2.5-7.7-5.5-7.7h-19.9c-3,0-5.5,4.7-5.5,7.7v2.2 c-1.8,0-3.3,1.5-3.3,3.3s1.5,3.3,3.3,3.3v1.1c0,2.7,1.6,5.1,4.1,6.1l4.8,2v3.6c0,1-0.6,1.8-1.5,2.1l-7.5,2.8 c-1.9,0.7-3.3,2.4-3.6,4.5l-1.3,9.5c-0.3,2,1.3,3.7,3.3,3.7h34.4C177.3,75.1,178.8,73.3,178.5,71.4z" class="st38"/><g><path d="M170.2,15.5c0,0,3.2-4.4,8.8-4.4c5.6,0,8.8,4.2,8.8,9.9c0,5.8-6.4,21.3-3.3,30.9c0,0-8.3-2.9-11-14.4 c-2.5-10.5,1.1-17.7,1.1-17.7L170.2,15.5z" class="st39"/></g><g><path d="M173.9,16.6c0,0,3.7-2.6,6.2-1.1c5.6,3.3,1,12.5,0,17.7c-1.4,6.9-0.8,13.5,4.4,18.8c0,0-8.3-2.9-11-14.4 c-2.5-10.5,0.4-17.7,0.4-17.7V16.6z" class="st2"/></g><g><path d="M175.2,18.1L175.2,18.1c0.5-0.4,0.5-1.1,0.1-1.6l-2.7-3c-0.4-0.5-1.1-0.5-1.6-0.1l0,0 c-0.5,0.4-0.5,1.1-0.1,1.6l2.7,3C174.1,18.5,174.8,18.5,175.2,18.1z" class="st36"/></g><g><path d="M145.9,15.5c0,0-3.2-4.4-8.8-4.4c-5.6,0-8.8,4.2-8.8,9.9c0,5.8,6.4,21.3,3.3,30.9c0,0,8.3-2.9,11-14.4 c2.5-10.5-1.1-17.7-1.1-17.7L145.9,15.5z" class="st39"/></g><g><path d="M142.2,16.6c0,0-3.7-2.6-6.2-1.1c-5.6,3.3-1,12.5,0,17.7c1.4,6.9,0.8,13.5-4.4,18.8c0,0,8.3-2.9,11-14.4 c2.5-10.5-0.4-17.7-0.4-17.7V16.6z" class="st2"/></g><g><path d="M141,18.1L141,18.1c-0.5-0.4-0.5-1.1-0.1-1.6l2.7-3c0.4-0.5,1.1-0.5,1.6-0.1l0,0c0.5,0.4,0.5,1.1,0.1,1.6 l-2.7,3C142.1,18.5,141.4,18.5,141,18.1z" class="st36"/></g><g><path d="M164.7,49l-13.2-2.9v6.5c0,0.8-0.4,1.5-1.1,1.9C159.6,56.1,164.7,49,164.7,49z" class="st40"/></g><path d="M173.5,33.2v-2.2c0-3-2.5-7.7-5.5-7.7h-19.9c-3,0-5.5,4.7-5.5,7.7v2.2c-1.8,0-3.3,1.5-3.3,3.3 s1.5,3.3,3.3,3.3v1.1c0,2.7,1.6,5.1,4.1,6.1l7.1,3c1.3,0.6,2.8,0.8,4.2,0.8l0,0c1.5,0,2.9-0.3,4.2-0.8l7.1-3 c2.5-1,4.1-3.4,4.1-6.1v-1.1c1.8,0,3.3-1.5,3.3-3.3S175.4,33.2,173.5,33.2z" class="st41"/><g><path d="M150.3,37.6L150.3,37.6c-0.6,0-1.1-0.5-1.1-1.1v-1.1c0-0.6,0.5-1.1,1.1-1.1l0,0c0.6,0,1.1,0.5,1.1,1.1v1.1 C151.4,37.1,151,37.6,150.3,37.6z" class="st6"/></g><g><path d="M165.8,37.6L165.8,37.6c-0.6,0-1.1-0.5-1.1-1.1v-1.1c0-0.6,0.5-1.1,1.1-1.1l0,0c0.6,0,1.1,0.5,1.1,1.1v1.1 C166.9,37.1,166.4,37.6,165.8,37.6z" class="st6"/></g><g><g><path d="M158.1,45.4c-2,0-3.8-0.5-5-1.3c-0.5-0.3-0.6-1-0.3-1.5c0.3-0.5,1-0.6,1.5-0.3c0.9,0.6,2.3,0.9,3.8,0.9 c1.5,0,2.9-0.4,3.8-0.9c0.5-0.3,1.2-0.2,1.5,0.3c0.3,0.5,0.2,1.2-0.3,1.5C161.9,44.9,160,45.4,158.1,45.4z" class="st40"/></g></g><path d="M159.2,24.5l-1.4-1.8c-3.3,7.5-12,8.8-15.2,8.9v1.5c-1.8,0-3.3,1.5-3.3,3.3c0,1.8,1.5,3.3,3.3,3.3v1.1 c0,2.7,1.6,5.1,4.1,6.1l7.1,3c0.3,0.1,0.7,0.3,1.1,0.4c-3.1-2.3-5.2-4.3-6.5-5.6c-0.9-1-1.4-2.2-1.4-3.6V35 C150.2,33.9,158.9,30.4,159.2,24.5z" class="st38"/><path d="M163.6,11.1c-3.6,0-5.5,1.1-5.5,1.1s-1.9-1.1-5.5-1.1S135.4,18,140.4,34c0,0,17.7-3.1,17.7-10.8 c0,7.6,17.7,10.8,17.7,10.8C180.8,18,167.2,11.1,163.6,11.1z" class="st39"/><g><path d="M158.1,12.2L158.1,12.2c0,0-1.9-1.1-5.5-1.1S135.3,18,140.4,34c0,0,2.1-0.4,4.9-1.2 C142.2,18.5,154.6,12.2,158.1,12.2z" class="st42"/></g><g><g><path d="M145,63.5l-2.4-6.2c-0.2-0.4,0-0.9,0.4-1l2.6-1c0.4-0.2,0.9,0,1,0.4l2.4,6.2L145,63.5z" class="st36"/></g></g><g><g><path d="M171.2,63.5l2.4-6.2c0.2-0.4,0-0.9-0.4-1l-2.6-1c-0.4-0.2-0.9,0-1,0.4l-2.4,6.2L171.2,63.5z" class="st36"/></g></g><g><path d="M169.1,61.9H147c-1.2,0-2.2,1-2.2,2.2v11h26.5v-11C171.3,62.8,170.3,61.9,169.1,61.9z" class="st35"/></g><polygon points="164.7 64.1 158.1 67.4 151.4 64.1 144.8 67.4 144.8 69.6 151.4 66.3 158.1 69.6 164.7 66.3 171.3 69.6 171.3 67.4" class="st43"/><polygon points="164.7 68.5 158.1 71.8 151.4 68.5 144.8 71.8 144.8 74 151.4 70.7 158.1 74 164.7 70.7 171.3 74 171.3 71.8" class="st44"/></g></g><g><g><g><path d="M54.9,37.6L54.9,37.6L54.9,37.6c-2.4,0-4.3,1.9-4.3,4.3c0,0.4,0.1,0.8,0.2,1.2c-1.9,0.4-3.4,2.1-3.4,4.2 c0,0.7,0.2,1.4,0.5,2c-1,0.8-1.6,2-1.6,3.3c0,1.7,1,3.1,2.4,3.8c-0.2,0.5-0.3,1-0.3,1.5c0,2.4,1.9,4.3,4.3,4.3H72V37.6H54.9z" class="st2"/><path d="M97.7,52.6c0-1.3-0.6-2.5-1.6-3.3c0.3-0.6,0.5-1.3,0.5-2c0-2.1-1.5-3.8-3.4-4.2c0.1-0.4,0.2-0.8,0.2-1.2 c0-2.4-1.9-4.3-4.3-4.3l0,0v0H72v24.6h19.2c2.4,0,4.3-1.9,4.3-4.3c0-0.5-0.1-1-0.3-1.5C96.7,55.7,97.7,54.2,97.7,52.6z" class="st23"/></g><path d="M91.8,71.4l-1.2-9.2c-0.1-0.9-0.4-1.7-0.9-2.4c0.2-0.5,0.1-1.1-0.4-1.4l-3.5-2.1c-0.5-0.3-1.1-0.1-1.5,0.4 l-0.1,0.1l-4.3-1.6c-0.9-0.3-1.5-1.1-1.5-2v-3.4l4.6-1.9c2.4-1,3.9-3.3,3.9-5.9v-9.6c0-3-2.4-7.5-5.3-7.5H62.4 c-3,0-5.3,4.5-5.3,7.5v9.6c0,2.6,1.6,4.9,3.9,5.9l4.6,1.9v3.4c0,0.9-0.6,1.7-1.5,2l-4.3,1.6l-0.1-0.1c-0.3-0.5-1-0.6-1.5-0.4 l-3.5,2.1c-0.5,0.3-0.6,0.9-0.4,1.4c-0.5,0.7-0.8,1.5-0.9,2.4l-1.2,9.2c-0.3,1.9,1.2,3.6,3.2,3.6h33.3 C90.6,75,92.1,73.3,91.8,71.4z" class="st27"/><path d="M78.4,49.6H65.6v3.5c0,0.8-0.4,1.5-1,1.8C73.5,56.5,78.4,49.6,78.4,49.6z" class="st32"/><g><path d="M83,47.8l-6.9,2.9c-1.3,0.5-2.7,0.8-4.1,0.8l0,0c-1.4,0-2.8-0.3-4.1-0.8L61,47.8c-2.4-1-3.9-3.3-3.9-5.9 v-9.6c0-3,2.4-7.5,5.3-7.5h19.2c3,0,5.3,4.5,5.3,7.5v9.6C87,44.5,85.4,46.8,83,47.8z" class="st12"/></g><g><path d="M64.5,38.7L64.5,38.7c-0.6,0-1.1-0.5-1.1-1.1v-1.1c0-0.6,0.5-1.1,1.1-1.1l0,0c0.6,0,1.1,0.5,1.1,1.1v1.1 C65.6,38.2,65.1,38.7,64.5,38.7z" class="st6"/></g><g><path d="M79.5,38.7L79.5,38.7c-0.6,0-1.1-0.5-1.1-1.1v-1.1c0-0.6,0.5-1.1,1.1-1.1l0,0c0.6,0,1.1,0.5,1.1,1.1v1.1 C80.6,38.2,80.1,38.7,79.5,38.7z" class="st6"/></g><g><g><path d="M72,46.2c-1.9,0-3.7-0.5-4.9-1.3c-0.5-0.3-0.6-1-0.3-1.5c0.3-0.5,1-0.6,1.5-0.3c0.8,0.6,2.2,0.9,3.7,0.9 c1.5,0,2.8-0.3,3.7-0.9c0.5-0.3,1.2-0.2,1.5,0.3c0.3,0.5,0.2,1.2-0.3,1.5C75.7,45.8,73.9,46.2,72,46.2z" class="st32"/></g></g><path d="M72,21.6c0,0-3,3.8-9.9,8C60,30.9,57,33.7,57,36.3v5.6c0,2.6,1.6,4.9,3.9,5.9l6.9,2.9c0.3,0.1,0.7,0.3,1,0.4 c-3-2.2-5.1-4.2-6.3-5.4c-0.9-0.9-1.4-2.2-1.4-3.4l0-7.5c3.3-3.6,12.7-6.7,12.8-9.9C74.2,22.6,72,21.6,72,21.6z" class="st27"/><g><path d="M84.3,56.6l-3.8,6.2c-0.6,0.9-1.6,1.5-2.7,1.5H66.3c-1.1,0-2.1-0.6-2.7-1.5l-3.8-6.2 c-0.3-0.5-1-0.6-1.5-0.4l-3.5,2.1c-0.5,0.3-0.7,1-0.4,1.5l4.8,7.6h25.7l4.8-7.6c0.3-0.5,0.2-1.2-0.4-1.5l-3.5-2.1 C85.3,56,84.6,56.2,84.3,56.6z" class="st45"/></g><g><rect width="25.7" height="7.5" x="59.2" y="67.5" class="st46"/></g><path d="M57,38.8C57,38.8,57,38.8,57,38.8c-0.2-6.7,15-12,15-15.1v-9.6c0,0-0.4-1-3.2-1.1c-1.4,0-4.2,0.6-6.4,2.1 c-6.5,4.6-9.1,15.1-10.1,23.7H57z" class="st2"/><path d="M87,38.8h4.8c-1-8.5-3.6-19-10.1-23.7c-2.2-1.5-5-2.2-6.4-2.1c-2.8,0-3.2,1.1-3.2,1.1v9.6 C72,26.7,87.2,32.1,87,38.8C87,38.8,87,38.8,87,38.8z" class="st23"/></g></g><g><g><g><path d="M261.8,66.2c0,0-8.1,3.3-23.2,3.3c-15,0-23.2-3.3-23.2-3.3l2.9-36.5c0.8-10.6,9.7-18.7,20.2-18.7h0 c10.6,0,19.4,8.1,20.2,18.7L261.8,66.2z" class="st47"/></g><g><path d="M244.6,11.9c-1.9-0.6-3.9-0.9-5.9-0.9h0c-10.6,0-19.4,8.1-20.2,18.7l-2.9,36.5c0,0,4,1.6,11.5,2.6 L244.6,11.9z" class="st48"/></g><path d="M259.6,68.1l-0.2-0.7c-0.1-0.3-0.4-0.6-0.8-0.5l-0.7-5.5c-0.2-1.8-1.4-3.4-3-4.2l-2.4-1.2 c-0.4-0.2-0.8,0-0.9,0.3l-4.7-1.7c-0.9-0.3-1.5-1.1-1.5-2.1v-3.6l4.8-2c2.5-1,4.1-3.4,4.1-6.1v-1.1c1.8,0,3.3-1.5,3.3-3.3 s-1.5-3.3-3.3-3.3v-2.2c0-3-2.5-7.7-5.5-7.7h-19.9c-3,0-5.5,4.7-5.5,7.7v2.2c-1.8,0-3.3,1.5-3.3,3.3s1.5,3.3,3.3,3.3v1.1 c0,2.7,1.6,5.1,4.1,6.1l4.8,2v3.6c0,0.9-0.6,1.8-1.5,2.1l-4.7,1.7c-0.2-0.3-0.6-0.5-0.9-0.3l-2.2,1.1c-1.8,0.9-3,2.5-3.2,4.3 l-0.7,5.5c-0.3,0-0.7,0.2-0.8,0.5l-0.2,0.7c-0.1,0.4,0.1,0.8,0.5,0.9l1.6,0.5v3.3c0,1.2,1,2.2,2.2,2.2h4.4h24.3h4.4 c1.2,0,2.2-1,2.2-2.2v-3.3l1.6-0.5C259.5,68.9,259.7,68.5,259.6,68.1z" class="st11"/><path d="M245.3,48.8l-13.2,0v3.6c0,0.8-0.4,1.5-1.1,1.9C240.3,55.8,245.3,48.8,245.3,48.8z" class="st12"/><path d="M254.2,33.1v-2.2c0-3-2.5-7.7-5.5-7.7h-19.9c-3,0-5.5,4.7-5.5,7.7v2.2c-1.8,0-3.3,1.5-3.3,3.3 s1.5,3.3,3.3,3.3v1.1c0,2.7,1.6,5.1,4.1,6.1l7.1,3c1.3,0.6,2.8,0.8,4.2,0.8l0,0c1.5,0,2.9-0.3,4.2-0.8l7.1-3 c2.5-1,4.1-3.4,4.1-6.1v-1.1c1.8,0,3.3-1.5,3.3-3.3S256,33.1,254.2,33.1z" class="st14"/><g><path d="M246.4,37.5L246.4,37.5c-0.6,0-1.1-0.5-1.1-1.1v-1.1c0-0.6,0.5-1.1,1.1-1.1l0,0c0.6,0,1.1,0.5,1.1,1.1v1.1 C247.5,37,247,37.5,246.4,37.5z" class="st6"/></g><g><g><path d="M238.7,45.2c-2,0-3.8-0.5-5-1.3c-0.5-0.3-0.6-1-0.3-1.5c0.3-0.5,1-0.6,1.5-0.3c0.9,0.6,2.3,0.9,3.8,0.9 s2.9-0.4,3.8-0.9c0.5-0.3,1.2-0.2,1.5,0.3c0.3,0.5,0.2,1.2-0.3,1.5C242.5,44.7,240.6,45.2,238.7,45.2z" class="st15"/></g></g><g><path d="M229.1,44.6c-0.9-1-1.4-2.2-1.4-3.5v-4.7c6-0.5,14.1-4.4,19-8.3l-1.4-1.4c0,0-9.8,6.3-22.1,6.3l0,0v0 c-1.8,0-3.3,1.5-3.3,3.3s1.5,3.3,3.3,3.3v1.1c0,2.7,1.6,5.1,4.1,6.1l7.1,3c0.3,0.1,0.7,0.3,1.1,0.4 C232.4,47.9,230.3,45.9,229.1,44.6z" class="st11"/></g><g><path d="M258.7,68l-0.9-6.6c-0.2-1.8-1.4-3.4-3-4.2l-2.4-1.2c-0.4-0.2-0.9,0-1,0.4c-1.5,5.6-6.7,9.8-12.8,9.8 c-6.1,0-11.2-4.1-12.8-9.8c-0.1-0.4-0.6-0.7-1-0.5l-2.2,1.1c-1.8,0.9-3,2.5-3.2,4.3l-0.9,6.7c2.9,1,7.9,2.5,7.9,2.5V75h24.3v-4.4 L258.7,68z" class="st34"/></g><g><path d="M226.5,70.2c-0.1-1.3-0.5-2.6-1.3-3.6l-5.2-6.9c-0.3,0.5-0.4,1.1-0.5,1.6l-0.9,6.6L226.5,70.2z" class="st35"/></g><g><path d="M217.8,68.1c-0.1,0.4,0.1,0.8,0.5,0.9l8.2,2.4v-0.8c0-0.5-0.1-1-0.2-1.5l-7.4-2.2c-0.4-0.1-0.8,0.1-0.9,0.5 L217.8,68.1z" class="st49"/></g><g><path d="M250.8,70.2c0.1-1.3,0.5-2.6,1.3-3.6l5.2-6.9c0.3,0.5,0.4,1.1,0.5,1.6l0.9,6.6L250.8,70.2z" class="st35"/></g><g><path d="M259.6,68.1c0.1,0.4-0.1,0.8-0.5,0.9l-8.2,2.4v-0.8c0-0.5,0.1-1,0.2-1.5l7.4-2.2c0.4-0.1,0.8,0.1,0.9,0.5 L259.6,68.1z" class="st49"/></g><g><path d="M231,37.5L231,37.5c-0.6,0-1.1-0.5-1.1-1.1v-1.1c0-0.6,0.5-1.1,1.1-1.1l0,0c0.6,0,1.1,0.5,1.1,1.1v1.1 C232.1,37,231.6,37.5,231,37.5z" class="st6"/></g><path d="M221.1,26.6l0,7.3c10.4,0,19-3.3,24.7-6.2c-1.8,1.9-4.4,4.5-8.1,7.6c0,0,9.8-3.9,15.3-8.8v0 c0-7.2-5.8-13-13-13h-5.8C226.9,13.5,221,19.4,221.1,26.6z" class="st47"/><path d="M243.8,14.1c-1.3-0.4-2.6-0.6-4-0.6H234c-7.2,0-13.1,5.9-13,13.1l0,7.3c3,0,5.9-0.3,8.6-0.7 C239.5,25.5,243.8,14.2,243.8,14.1z" class="st48"/></g></g><g><g><path d="M221.7,69.2l-0.1-0.9c0-0.4-0.4-0.6-0.7-0.6l-0.1,0l-1-8c-0.2-1.7-1.4-3.2-3.1-3.8l-5.6-1.9 c-0.8-0.3-1.6-0.1-2.2,0.4l-1.6-0.5c-0.9-0.3-1.6-1.2-1.6-2.2v-3.7l4.9-2c2.5-1.1,4.2-3.5,4.2-6.3v-1.1c1.9,0,3.4-1.5,3.4-3.4 s-1.5-3.4-3.4-3.4v-2.3c0-3.1-2.5-5.7-5.7-5.7h-20.5c-3.1,0-5.7,2.5-5.7,5.7v2.3c-1.9,0-3.4,1.5-3.4,3.4s1.5,3.4,3.4,3.4v1.1 c0,2.8,1.7,5.2,4.2,6.3l4.9,2v3.7c0,1-0.6,1.8-1.6,2.2l-1.6,0.5c-0.6-0.5-1.4-0.7-2.2-0.4l-5.6,1.9c-1.7,0.6-2.9,2-3.1,3.8l-1,8 l-0.1,0c-0.4,0-0.7,0.2-0.7,0.6l-0.1,0.9c0,0.4,0.2,0.7,0.6,0.7l1.7,0.2v2.6c0,1.3,1,2.3,2.3,2.3h36.4c1.3,0,2.3-1,2.3-2.3v-2.6 l1.7-0.2C221.5,69.8,221.8,69.5,221.7,69.2z" class="st11"/><path d="M192.2,48v3.8c0,0.8-0.4,1.5-1.1,1.9c9.1,1.6,14.3-5.1,14.7-5.7L192.2,48L192.2,48z" class="st12"/><path d="M214.9,31.8v-2.3c0-3.1-2.5-5.7-5.7-5.7h-20.5c-3.1,0-5.7,2.5-5.7,5.7v2.3h0c-1.9,0-3.4,1.5-3.4,3.4 s1.5,3.4,3.4,3.4h0v1.1c0,2.8,1.7,5.2,4.2,6.3l7.4,3.1c1.4,0.6,2.9,0.9,4.4,0.9l0,0c1.5,0,3-0.3,4.4-0.9l7.4-3.1 c2.5-1.1,4.2-3.5,4.2-6.3v-1.1c1.9,0,3.4-1.5,3.4-3.4S216.8,31.8,214.9,31.8z" class="st14"/><g><path d="M191,36.4L191,36.4c-0.6,0-1.1-0.5-1.1-1.1v-1.1c0-0.6,0.5-1.1,1.1-1.1l0,0c0.6,0,1.1,0.5,1.1,1.1v1.1 C192.2,35.9,191.7,36.4,191,36.4z" class="st6"/></g><g><path d="M207,36.4L207,36.4c-0.6,0-1.1-0.5-1.1-1.1v-1.1c0-0.6,0.5-1.1,1.1-1.1l0,0c0.6,0,1.1,0.5,1.1,1.1v1.1 C208.1,35.9,207.6,36.4,207,36.4z" class="st6"/></g><g><g><path d="M199.1,44.4c-2,0-3.9-0.5-5.2-1.4c-0.5-0.4-0.7-1.1-0.3-1.6c0.4-0.5,1.1-0.7,1.6-0.3c0.9,0.6,2.4,1,3.9,1 c1.6,0,3-0.4,3.9-1c0.5-0.4,1.2-0.2,1.6,0.3c0.4,0.5,0.2,1.2-0.3,1.6C203,43.9,201.1,44.4,199.1,44.4z" class="st15"/></g></g><g><path d="M214.9,31.8v-2.3h-31.9v2.3c-1.9,0-3.4,1.5-3.4,3.4s1.5,3.4,3.4,3.4v1.1c0,2.8,1.7,5.2,4.2,6.3l7.4,3.1 c0.4,0.1,0.7,0.3,1.1,0.4c-3.2-2.4-5.4-4.4-6.7-5.8c-0.9-1-1.4-2.3-1.4-3.7v-8.3H214.9z" class="st11"/></g><g><path d="M215,28.3h-31.9l-0.8-8.4c-0.2-2.5,1.2-4.8,3.4-5.7l11.1-4.8c0.7-0.3,1.4-0.4,2.2-0.4h0 c0.8,0,1.5,0.2,2.2,0.4l11.1,4.8c2.3,1,3.6,3.3,3.4,5.7L215,28.3z" class="st21"/></g><g><path d="M199,9L199,9c-0.8,0-1.5,0.2-2.2,0.4l-11.1,4.8c-2.3,1-3.6,3.3-3.4,5.7l0.8,8.4H199V9z" class="st20"/></g><g><path d="M213.2,24.9h-28.7c-1.7,0-2.8,1.8-2,3.3l0.6,1.3H215l0.4-1.7C215.8,26.3,214.7,24.9,213.2,24.9z" class="st50"/></g><g><path d="M190,29.5c0,0,4.4,2.1,11.4,3.4c0,0-1.5-1.4-3.4-3.4H190z" class="st48"/></g><g><path d="M200.2,29.5c0,0,2.8,1.5,5.7,2.3l-1.1-2.3H200.2z" class="st48"/></g><g><path d="M183.1,29.5v2.3h0.9c0.9,0,1.6-0.5,2-1.3l0.5-1H183.1z" class="st48"/></g><g><path d="M214.9,29.5v2.3h-0.9c-0.9,0-1.7-0.5-2-1.3l-0.5-1H214.9z" class="st48"/></g><g><path d="M211.5,75v-5.7h9.5l-1.2-9.7c-0.2-1.7-1.4-3.2-3.1-3.8l-5.6-1.9c-1-0.3-2.1,0-2.6,0.9 c-2,3.2-5.6,5.3-9.6,5.3c-4,0-7.6-2.1-9.6-5.3c-0.5-0.9-1.6-1.2-2.6-0.9l-5.6,1.9c-1.7,0.6-2.9,2-3.1,3.8l-1.1,8.7l9.4,1V75 L211.5,75L211.5,75z" class="st51"/></g><g><path d="M186.5,70.2v-2.6c0-1.1-0.4-2.2-1.1-3l-6.3-7.2c-0.5,0.6-0.8,1.4-0.9,2.3l-1.2,9.5 C178.8,69.3,183.6,69.9,186.5,70.2z" class="st20"/></g><g><path d="M186.5,68.7l-9.4-1c-0.4,0-0.7,0.2-0.7,0.6l-0.1,0.9c0,0.4,0.2,0.7,0.6,0.7l9.6,1.1V68.7z" class="st50"/></g><g><path d="M211.5,70.2v-2.6c0-1.1,0.4-2.2,1.1-3l6.3-7.2c0.5,0.6,0.8,1.4,0.9,2.3l1.2,9.5 C219.2,69.3,214.4,69.9,211.5,70.2z" class="st20"/></g><g><path d="M211.5,68.7l9.4-1c0.4,0,0.7,0.2,0.7,0.6l0.1,0.9c0,0.4-0.2,0.7-0.6,0.7l-9.6,1.1V68.7z" class="st50"/></g><g><path d="M199.1,68.2c-3.8,0-6.8,3.1-6.8,6.8h13.7C205.9,71.2,202.8,68.2,199.1,68.2z" class="st43"/></g></g></g><g><g><path d="M114.7,47c-3.3,0-9.5,0.4-12,1.2l12,11.1l12-11.1C124.2,47.4,118,47,114.7,47z" class="st26"/><path d="M138.2,70.5l-1.5-12.1c-0.2-1.8-1.5-3.4-3.2-3.9l-4.3-1.4c0-0.1,0.2-1.1-1.1-2c-1-0.7,0.3-2-1.3-2.8l-4,3.6 c-0.5-0.4-0.8-1.1-0.8-1.7v-3.9l5.2-2.1c2.7-1.1,4.4-3.7,4.4-6.6v-1.2c2,0,3.6-1.6,3.6-3.6c0-1.1-0.5-2-1.2-2.7l0.5-8.6 c0.4-7.5-5.6-13.9-13.1-13.9h-12.9c-7.5,0-13.5,6.3-13.1,13.9l0.5,8.6c-0.7,0.7-1.2,1.6-1.2,2.7c0,2,1.6,3.6,3.6,3.6v1.2 c0,2.9,1.7,5.5,4.4,6.6l5.2,2.1V50c0,0.7-0.3,1.3-0.8,1.8l-4-3.6c-1.6,0.8-0.2,2.1-1.3,2.8c-1.3,0.9-1.1,2-1.1,2l-4.3,1.4 c-1.7,0.6-3,2.1-3.2,3.9l-1.5,12.1c-0.3,2.1,1.4,4,3.6,4h39.7C136.8,74.5,138.5,72.6,138.2,70.5z" class="st27"/><g><path d="M108.3,7.5c-7.5,0-13.5,6.3-13.1,13.9l0.5,8.9h38.3l0.5-8.9c0.4-7.5-5.6-13.9-13.1-13.9H108.3z" class="st28"/></g><g><path d="M95.1,21.4l0.5,8.9h1.2h7.8c4.6-14.1,15-22.7,15-22.7h-11.3C100.7,7.5,94.7,13.8,95.1,21.4z" class="st29"/></g><g><path d="M138.1,70.5l-1.5-12.1c-0.2-1.8-1.5-3.4-3.2-3.9l-6.8-2.3c-0.5-0.2-1.1,0-1.4,0.5c-2,3.7-10,6.3-10.5,6.3 s-8.5-2.5-10.5-6.3c-0.3-0.5-0.9-0.7-1.4-0.5L96,54.4c-1.7,0.6-3,2.1-3.2,3.9l-1.5,12.1c-0.3,2.1,1.4,4,3.6,4h39.7 C136.7,74.5,138.4,72.6,138.1,70.5z" class="st30"/></g><g><path d="M93.9,56c-0.5,0.7-0.9,1.5-1,2.4l-1.5,12.1c-0.3,2.1,1.4,4,3.6,4h6.7v-7.8c0-1.2-0.4-2.3-1.2-3.1L93.9,56z" class="st31"/></g><g><path d="M135.7,56c0.5,0.7,0.9,1.5,1,2.4l1.5,12.1c0.3,2.1-1.4,4-3.6,4H128v-7.8c0-1.2,0.4-2.3,1.2-3.1L135.7,56z" class="st31"/></g><g><path d="M122,46.2L107.6,43v7c0,0.9-0.5,1.6-1.2,2C116.4,53.8,122,46.2,122,46.2z" class="st32"/></g><path d="M131.5,29v-2.4c0-3.3-2.7-6-6-6H104c-3.3,0-6,2.7-6,6V29c-2,0-3.6,1.6-3.6,3.6s1.6,3.6,3.6,3.6v1.2 c0,2.9,1.7,5.5,4.4,6.6l7.7,3.2c1.5,0.6,3,0.9,4.6,0.9l0,0c1.6,0,3.1-0.3,4.6-0.9l7.7-3.2c2.7-1.1,4.4-3.7,4.4-6.6v-1.2 c2,0,3.6-1.6,3.6-3.6S133.5,29,131.5,29z" class="st12"/><g><path d="M106.4,33.8L106.4,33.8c-0.7,0-1.2-0.5-1.2-1.2v-1.2c0-0.7,0.5-1.2,1.2-1.2l0,0c0.7,0,1.2,0.5,1.2,1.2v1.2 C107.6,33.3,107.1,33.8,106.4,33.8z" class="st6"/></g><g><path d="M123.2,33.8L123.2,33.8c-0.7,0-1.2-0.5-1.2-1.2v-1.2c0-0.7,0.5-1.2,1.2-1.2l0,0c0.7,0,1.2,0.5,1.2,1.2v1.2 C124.4,33.3,123.8,33.8,123.2,33.8z" class="st6"/></g><g><g><path d="M114.7,42.2c-2.1,0-4.1-0.5-5.5-1.4c-0.5-0.4-0.7-1.1-0.3-1.7c0.4-0.5,1.1-0.7,1.7-0.3 c0.9,0.6,2.5,1,4.1,1s3.2-0.4,4.1-1c0.5-0.4,1.3-0.2,1.7,0.3c0.4,0.5,0.2,1.3-0.3,1.7C118.8,41.7,116.8,42.2,114.7,42.2z" class="st32"/></g></g><path d="M109.6,30.2c6.8-4.1,10.3-9.4,10.3-9.4l-17,0c-2.7,0.6-4.8,3-4.8,5.9V29c-2,0-3.6,1.6-3.6,3.6 s1.6,3.6,3.6,3.6v1.2c0,2.9,1.7,5.5,4.4,6.6l7.7,3.2c0.4,0.2,0.8,0.3,1.2,0.4c-3.4-2.5-5.7-4.7-7-6.1c-1-1-1.5-2.4-1.5-3.9V27 L109.6,30.2z" class="st27"/><g><path d="M127.9,51c-1-0.7,0.3-2-1.3-2.8l-12,10.8l-12-10.8c-1.6,0.8-0.2,2.1-1.3,2.8c-1.3,0.9-1.1,2-1.1,2l14.3,7.2 v0l0.1,0l-0.1,0v0l14.4-7.2C129.1,53,129.3,51.9,127.9,51z" class="st31"/></g><g><path d="M99.2,23.1l4.8,2.4l3.6-1.2l-1.2,2.4l2.4,1.2c0,0,4.1-2,8.4-6.7v5.5c0,0,3.3-0.1,4.8-1.2l1.2-4.8 c0,0,1.2,3.5,2.4,6l2.4-1.2v-7.2H99.2V23.1z" class="st28"/></g><path d="M99.2,18.3v4.8l4.8,2.4l2.9-1c1.1-2.3,2.3-4.4,3.5-6.2L99.2,18.3z" class="st29"/></g></g><g><g><path d="M53.7,68.6l-0.1-1c0-0.4-0.4-0.7-0.8-0.6l-0.1,0l-1.1-8.7c-0.2-1.9-1.5-3.5-3.3-4.1l-6-2 c-0.8-0.3-1.7-0.1-2.4,0.4l-1.8-0.6c-1-0.3-1.7-1.3-1.7-2.3v-4l5.3-2.2c2.8-1.2,4.6-3.9,4.6-6.8v-1.2c2,0,3.7-1.7,3.7-3.7 c0-1.6-1-3-2.4-3.5l0.6-10.8C48.5,11.8,44,7,38.3,7H19.7C14,7,9.5,11.8,9.8,17.4l0.6,10.8C9,28.8,8,30.1,8,31.7 c0,2,1.7,3.7,3.7,3.7v1.2c0,3,1.8,5.7,4.6,6.8l5.3,2.2v4c0,1.1-0.7,2-1.7,2.3l-1.8,0.6c-0.6-0.5-1.5-0.7-2.4-0.4l-6,2 c-1.8,0.6-3.1,2.2-3.3,4.1L5.3,67l-0.1,0c-0.4,0-0.8,0.2-0.8,0.6l-0.1,1c0,0.4,0.2,0.8,0.6,0.8l1.8,0.2v2.9c0,1.4,1.1,2.5,2.5,2.5 h39.6c1.4,0,2.5-1.1,2.5-2.5v-2.9l1.8-0.2C53.5,69.4,53.8,69,53.7,68.6z" class="st41"/><g><path d="M9.8,17.4l0.7,11.8h37.1l0.7-11.8C48.5,11.8,44,7,38.3,7H19.6C13.9,7,9.4,11.8,9.8,17.4z" class="st6"/></g><g><path d="M42.6,75v-6.2h10.3l-1.3-10.5c-0.2-1.9-1.5-3.5-3.3-4.1l-6-2c-1.1-0.4-2.2,0-2.8,1c-2.2,3.5-6,5.7-10.4,5.7 s-8.2-2.3-10.4-5.7c-0.6-0.9-1.8-1.3-2.8-1l-6,2c-1.8,0.6-3.1,2.2-3.3,4.1l-1.2,9.4l10.3,1.1v6h27V75H42.6z" class="st43"/></g><g><path d="M36.4,45.6H21.6v4.1c0,0.9-0.5,1.7-1.2,2.1C30.7,53.7,36.4,45.6,36.4,45.6z" class="st52"/></g><path d="M46.3,28v-4.9c0-3.4-2.8-6.2-6.2-6.2H17.9c-3.4,0-6.2,2.8-6.2,6.2V28c-2,0-3.7,1.7-3.7,3.7s1.7,3.7,3.7,3.7 v1.2c0,3,1.8,5.7,4.6,6.8l8,3.3c1.5,0.6,3.1,1,4.8,1l0,0c1.6,0,3.2-0.3,4.8-1l8-3.3c2.8-1.2,4.6-3.9,4.6-6.8v-1.2 c2,0,3.7-1.7,3.7-3.7S48.4,28,46.3,28z" class="st53"/><g><path d="M20.3,33L20.3,33c-0.7,0-1.2-0.6-1.2-1.2v-1.2c0-0.7,0.6-1.2,1.2-1.2l0,0c0.7,0,1.2,0.6,1.2,1.2v1.2 C21.6,32.4,21,33,20.3,33z" class="st6"/></g><g><path d="M37.7,33L37.7,33c-0.7,0-1.2-0.6-1.2-1.2v-1.2c0-0.7,0.6-1.2,1.2-1.2l0,0c0.7,0,1.2,0.6,1.2,1.2v1.2 C38.9,32.4,38.3,33,37.7,33z" class="st6"/></g><g><g><path d="M29,41.6c-2.2,0-4.3-0.5-5.6-1.5c-0.6-0.4-0.7-1.2-0.3-1.7c0.4-0.6,1.2-0.7,1.7-0.3c1,0.7,2.6,1.1,4.3,1.1 s3.3-0.4,4.2-1.1c0.6-0.4,1.3-0.2,1.7,0.3c0.4,0.6,0.2,1.3-0.3,1.7C33.2,41.1,31.2,41.6,29,41.6z" class="st52"/></g></g><g><path d="M15.4,69.7V67c0-1.2-0.4-2.3-1.2-3.2l-6.8-7.9c-0.5,0.7-0.9,1.5-1,2.4L5.1,68.6L15.4,69.7z" class="st54"/></g><g><path d="M15.4,68.1L5.2,67c-0.4,0-0.8,0.2-0.8,0.6l-0.1,1c0,0.4,0.2,0.8,0.6,0.8l10.5,1.2V68.1z" class="st55"/></g><g><path d="M42.6,69.7V67c0-1.2,0.4-2.3,1.2-3.2l6.8-7.9c0.5,0.7,0.9,1.5,1,2.4l1.3,10.3L42.6,69.7z" class="st54"/></g><g><path d="M42.6,68.1L52.8,67c0.4,0,0.8,0.2,0.8,0.6l0.1,1c0,0.4-0.2,0.8-0.6,0.8l-10.5,1.2V68.1z" class="st55"/></g><path d="M16.6,37l0-20c-2.8,0.6-4.9,3.1-4.9,6.1V28c-2,0-3.7,1.7-3.7,3.7s1.7,3.7,3.7,3.7v1.2c0,3,1.8,5.7,4.6,6.8 l8,3.3c0.4,0.2,0.8,0.3,1.2,0.4c-3.5-2.6-5.9-4.8-7.2-6.3C17.2,39.9,16.6,38.5,16.6,37z" class="st41"/></g></g></svg>