<?xml version="1.0" encoding="utf-8"?>
<!-- Generator: Adobe Illustrator 21.1.0, SVG Export Plug-In . SVG Version: 6.00 Build 0)  -->
<svg version="1.1" id="Layer_1" xmlns="http://www.w3.org/2000/svg" xmlns:xlink="http://www.w3.org/1999/xlink" x="0px" y="0px"
	 viewBox="0 0 500 200" style="enable-background:new 0 0 500 200;" xml:space="preserve">
<style type="text/css">
	.st0{fill:#6060DD;}
	.st1{fill:#12AEEF;}
	.st2{fill:#F6B47B;}
	.st3{fill:#E2A071;}
	.st4{fill:#FDC88E;}
	.st5{fill:#623F33;}
	.st6{fill:#6E4439;}
	.st7{fill:#57B9DD;}
	.st8{fill:#43A0C5;}
	.st9{fill:#258CAC;}
	.st10{fill:#5E342E;}
	.st11{fill:#FFD7A3;}
	.st12{fill:#9D6E48;}
	.st13{fill:#FFB04D;}
	.st14{fill:#8D5F3D;}
	.st15{fill:#FFC84A;}
	.st16{fill:#FFE1B2;}
	.st17{fill:#E4B07B;}
	.st18{fill:#FF6473;}
	.st19{fill:#F05467;}
	.st20{fill:#FFA0B5;}
	.st21{fill:#A63F44;}
	.st22{fill:#FF4F4F;}
	.st23{fill:#F23F44;}
	.st24{fill:#FF9656;}
	.st25{fill:#EF8C56;}
	.st26{fill:#FF8C51;}
	.st27{fill:#4F6E7F;}
	.st28{fill:#33546A;}
</style>
<g>
	<path class="st0" d="M3.2,60.4l22.2-4c1.9,6.3,6.7,9.4,14.4,9.4c6,0,9-1.6,9-4.8c0-1.7-0.7-3-2.1-3.9c-1.4-0.9-3.9-1.8-7.5-2.5
		c-13.7-2.6-22.4-6-26.3-10.3C9,40.2,7.1,35.2,7.1,29.5c0-7.3,2.8-13.5,8.4-18.3C21,6.3,29.1,3.9,39.5,3.9C55.4,3.9,65.9,10.2,71,23
		l-19.8,6c-2.1-5.2-6.2-7.8-12.5-7.8c-5.2,0-7.8,1.6-7.8,4.9c0,1.4,0.6,2.6,1.8,3.4c1.2,0.8,3.5,1.6,6.9,2.3c9.3,2,16,3.7,19.9,5.2
		c3.9,1.5,7.2,4.1,9.8,7.8c2.6,3.7,3.9,8,3.9,13c0,7.9-3.2,14.3-9.6,19.2s-14.8,7.3-25.2,7.3C19.3,84.2,7.6,76.3,3.2,60.4z"/>
	<path class="st0" d="M117.3,24.9v14.8h-11.6v21.4c0,2.9,0.6,4.7,1.7,5.2c1.1,0.6,2.2,0.8,3.4,0.8c1.8,0,4-0.3,6.5-1v16.2
		c-4.5,0.9-8.9,1.3-13.2,1.3c-7,0-12.2-1.5-15.4-4.5c-3.3-3-4.9-7.8-4.9-14.4l0.1-6.8V39.7H75V24.9h8.7L84.1,6l21.6-0.3v19.2H117.3z
		"/>
	<path class="st0" d="M181.3,24.9V83h-21.1v-9.5c-3.1,7.2-9.1,10.7-18,10.7c-5.5,0-9.8-1.5-12.8-4.6c-3-3.1-4.5-7.5-4.5-13.2V24.9
		h22.8v36.5c0,2.3,0.3,3.9,0.9,4.8c0.6,0.9,1.9,1.4,3.7,1.4c1.9,0,3.5-0.7,4.7-2.1c1.2-1.4,1.8-3.3,1.8-5.9V24.9H181.3z"/>
	<path class="st0" d="M250,83h-21.4v-7.7c-3.2,5.9-8.4,8.9-15.6,8.9c-6.7,0-12.1-2.6-16.3-7.9c-4.2-5.2-6.3-12.8-6.3-22.8
		c0-9.3,2.1-16.7,6.3-22.2c4.2-5.5,9.7-8.2,16.6-8.2c5.7,0,10.5,2.2,14.2,6.6V5H250V83z M227.6,45.6c0-5.2-2.2-7.8-6.5-7.8
		c-3,0-5,1.7-5.9,5c-0.9,3.3-1.4,7.4-1.4,12.2c0,9.4,2.4,14.1,7.2,14.1c1.8,0,3.4-0.7,4.7-2.2c1.3-1.5,1.9-3.7,1.9-6.8V45.6z"/>
	<path class="st0" d="M300.4,62.1l21.2,1.4c-1.3,5.7-4.5,10.6-9.6,14.6c-5.2,4-12.1,6-20.9,6c-9.8,0-17.6-2.8-23.4-8.5
		c-5.8-5.7-8.7-12.7-8.7-21c0-8.7,2.9-16,8.6-22c5.7-6,13.4-9,23-9c9.3,0,16.8,2.8,22.5,8.5c5.7,5.6,8.6,13.3,8.6,23
		c0,0.8,0,1.9-0.1,3.3h-38.9c0.1,3.7,0.7,6.4,1.9,8.1c1.2,1.8,3.5,2.7,7,2.7C296.6,69.3,299.5,66.9,300.4,62.1z M298.8,47.1
		c0-3.9-0.8-6.6-2.4-7.9c-1.5-1.4-3.4-2-5.7-2c-5.4,0-8.1,3.3-8.1,9.9H298.8z"/>
	<path class="st0" d="M387.3,83h-22.8V46.4c0-3-0.5-4.9-1.4-5.8c-0.9-0.8-2.1-1.3-3.5-1.3c-4.1,0-6.2,2.9-6.2,8.7V83h-22.8V24.9
		h21.1v8.2c3.1-6.3,8.7-9.4,16.7-9.4c4.2,0,7.8,0.8,10.7,2.4c2.9,1.6,5,3.7,6.3,6.3s1.9,7,1.9,13.4V83z"/>
	<path class="st0" d="M435.1,24.9v14.8h-11.6v21.4c0,2.9,0.6,4.7,1.7,5.2c1.1,0.6,2.2,0.8,3.4,0.8c1.8,0,4-0.3,6.5-1v16.2
		c-4.5,0.9-8.9,1.3-13.2,1.3c-7,0-12.2-1.5-15.4-4.5c-3.3-3-4.9-7.8-4.9-14.4l0.1-6.8V39.7h-8.7V24.9h8.7L401.9,6l21.6-0.3v19.2
		H435.1z"/>
	<path class="st0" d="M437.6,66.5l18-2.5c1,4.2,5.1,6.3,12.2,6.3c5.9,0,8.8-1.1,8.8-3.4c0-1-0.6-1.8-1.7-2.3
		c-1.1-0.6-3.8-1.1-8.1-1.7c-11.8-1.6-19.2-4.2-22.1-7.7c-2.9-3.5-4.4-7.4-4.4-11.6c0-5.9,2.5-10.7,7.4-14.4s11.4-5.5,19.5-5.5
		c14.1,0,23.1,5.1,26.9,15.2l-17.2,3.3c-1.6-3.4-5-5.1-10.1-5.1c-2.4,0-4.3,0.3-5.5,1c-1.2,0.7-1.8,1.3-1.8,2c0,1.9,1.8,3.1,5.5,3.5
		c9.5,1.1,16,2.1,19.4,3.2c3.4,1.1,6.3,3.1,8.7,6.1c2.4,2.9,3.6,6.5,3.6,10.6c0,6.4-2.7,11.4-8,15.1c-5.3,3.7-12.6,5.6-22,5.6
		C451,84.2,441.3,78.3,437.6,66.5z"/>
	<path class="st1" d="M326.7,147.6V176h-24.3V98h33.3c8.3,0,14.6,1,18.9,2.9c4.3,1.9,7.7,4.8,10.3,8.7c2.5,3.9,3.8,8.3,3.8,13.2
		c0,7.4-2.6,13.4-7.8,18c-5.2,4.6-12.1,6.9-20.7,6.9H326.7z M326.4,130.9h8c7,0,10.6-2.6,10.6-7.8c0-4.9-3.3-7.3-9.8-7.3h-8.8V130.9
		z"/>
	<path class="st1" d="M434.3,176h-21.7c-0.5-2.5-0.8-5.2-0.8-8.1c-4.1,6.2-10.3,9.3-18.7,9.3c-6.9,0-12-1.8-15.4-5.3
		c-3.4-3.5-5.1-7.5-5.1-12c0-6.1,2.8-11.1,8.4-14.9c5.6-3.8,15.5-6.1,29.7-6.8v-1.3c0-2.5-0.6-4.2-1.7-5.1c-1.2-0.8-2.9-1.3-5.1-1.3
		c-5.3,0-8.2,2.1-8.8,6.3l-20.8-1.9c3-12.1,13.1-18.2,30.3-18.2c4.7,0,9,0.5,12.9,1.4c3.9,0.9,7,2.4,9.3,4.4c2.3,2,3.8,4.1,4.6,6.3
		c0.8,2.2,1.2,6.5,1.2,12.7v23.2C432.5,169.1,433.1,172.8,434.3,176z M410.6,148.8c-9.7,1-14.6,4.1-14.6,9.3c0,3.5,1.9,5.3,5.8,5.3
		c2.4,0,4.5-0.7,6.2-2.2c1.7-1.4,2.6-4.6,2.6-9.6V148.8z"/>
	<path class="st1" d="M497,117.9l-22.8,62.9c-1.8,4.8-4.3,8.5-7.5,11.2c-3.3,2.7-8.3,4-15.1,4c-1.6,0-5.4-0.2-11.4-0.5v-16.2
		c3,0.5,5.7,0.7,8.2,0.7c6.5,0,9.8-1.4,9.8-4.3c0-1-0.3-2.3-1-3.9l-20.8-53.8h24.4l9.6,31l10-31H497z"/>
</g>
<g>
	<g>
		<path class="st2" d="M88.6,184.1l-0.3-1.1c-0.1-0.5-0.6-0.8-1.2-0.8l-0.3-2.4l-0.7-5c0,0,0,0,0,0l-0.1-0.6c-0.4-2.6-2-4.9-4.7-6.3
			l-3.2-1.6c-0.5-0.3-0.9,0.1-1.3,0.5l-6.9-2.6c-1.3-0.4-2.2-1.7-2.2-3.1V156l6.9-2.9c3.6-1.5,5.9-5,5.9-8.9v-14.5
			c0-4.4-3.6-11.3-8.1-11.3h-29c-4.4,0-8.1,6.8-8.1,11.3v14.5c0,3.9,2.3,7.4,5.9,8.9l6.9,2.9v5.2c0,1.4-0.9,2.6-2.2,3.1l-6.9,2.6
			c-0.4-0.4-0.8-0.7-1.3-0.5l-3.2,1.6c-2.7,1.4-4.3,3.7-4.7,6.3l-0.1,0.6c0,0,0,0,0,0l-0.7,5l-0.3,2.4c-0.5-0.1-1,0.2-1.2,0.8
			l-0.3,1.1c-0.2,0.6,0.2,1.2,0.7,1.3l0.3,0.1l-0.4,3.2c-0.4,2.9,1.9,5.5,4.8,5.5h50.1c2.9,0,5.2-2.6,4.8-5.5l-0.4-3.2l0.3-0.1
			C88.4,185.3,88.7,184.7,88.6,184.1z"/>
		<path class="st3" d="M48.4,155.7v5.5c0,1.1-0.6,2.2-1.6,2.8c12.8,2.2,20.2-7.4,20.8-8.3H48.4z"/>
		<path class="st4" d="M80.7,144.2c0,3.9-2.3,7.4-5.9,8.9l-10.4,4.3c-2,0.8-4.1,1.2-6.2,1.2l0,0c-2.1,0-4.2-0.4-6.2-1.2l-10.4-4.3
			c-3.6-1.5-5.9-5-5.9-8.9v-14.5c0-4.4,3.6-11.3,8.1-11.3h29c4.4,0,8.1,6.8,8.1,11.3V144.2z"/>
		<path class="st5" d="M46.8,139.5L46.8,139.5c-0.9,0-1.6-0.7-1.6-1.6v-1.6c0-0.9,0.7-1.6,1.6-1.6l0,0c0.9,0,1.6,0.7,1.6,1.6v1.6
			C48.4,138.8,47.7,139.5,46.8,139.5z"/>
		<path class="st5" d="M69.4,139.5L69.4,139.5c-0.9,0-1.6-0.7-1.6-1.6v-1.6c0-0.9,0.7-1.6,1.6-1.6l0,0c0.9,0,1.6,0.7,1.6,1.6v1.6
			C71,138.8,70.3,139.5,69.4,139.5z"/>
		<g>
			<path class="st3" d="M58.1,150.8c-2.9,0-5.5-0.7-7.4-1.9c-0.7-0.5-0.9-1.5-0.4-2.2c0.5-0.7,1.5-0.9,2.2-0.4
				c1.3,0.9,3.3,1.4,5.5,1.4c2.2,0,4.3-0.5,5.5-1.4c0.7-0.5,1.7-0.3,2.2,0.4c0.5,0.7,0.3,1.7-0.4,2.2
				C63.7,150.1,61,150.8,58.1,150.8z"/>
		</g>
		<path class="st2" d="M35.5,131.7v12.7c0,3.9,2.3,7.4,5.9,8.9l10.4,4.3c0.5,0.2,1,0.4,1.6,0.6c-4.6-3.4-7.6-6.3-9.4-8.2
			c-1.3-1.4-2-3.3-2-5.2l0-9c4.6-1.6,16.5-6.9,16.7-15.6c0-0.8,0-1.6,0-2.2C51.1,128.3,40.6,131,35.5,131.7z"/>
		<path class="st6" d="M86,154.4c0-3.4-2.8-4.9-2.8-7.8c0-2.9,3.7-3.7,3.7-8c0-2.9-1.3-5.2-2.2-7.3c4.9-21.3-13.5-30.5-18.5-30.5
			c-5.2,0-8.1,1.6-8.1,1.6s-2.8-1.6-8.1-1.6c-5,0-23.4,9.2-18.5,30.5c-0.9,2.1-2.2,4.3-2.2,7.3c0,4.4,3.7,5.1,3.7,8
			c0,2.9-2.8,4.4-2.8,7.8c0,3.4,2.7,5.1,3.6,7.6c0.4,1.2-0.1,4.7-0.1,4.7s2.9-4.7,1.4-9.1c-1.5-4.4,0.2-4.8,1.6-6.7
			c2.1-2.9,1.8-6.1,0.1-9.2c-1.1-2-0.8-4,0.7-5.3c1.6-1.4,2-3.9,2-3.9c7.6-2.2,18.6-6.7,18.6-14c0,7.3,11,11.7,18.6,14
			c0,0,0.4,2.5,2,3.9c1.5,1.4,1.8,3.3,0.7,5.3c-1.7,3.1-2,6.3,0.1,9.2c1.4,1.9,3.1,2.4,1.6,6.7c-1.5,4.4,1.4,9.1,1.4,9.1
			s-0.5-3.5-0.1-4.7C83.3,159.5,86,157.8,86,154.4z"/>
		<path class="st7" d="M86.1,174.2c-0.4-2.6-2-4.9-4.7-6.3l-3.2-1.6c-0.4-0.2-0.8-0.1-1.1,0.2c-8.7,10.3-19,14.7-19,14.7h0h0
			c0,0-10.4-4.4-19-14.7c-0.3-0.3-0.7-0.4-1.1-0.2l-3.2,1.6c-2.7,1.4-4.3,3.7-4.7,6.3l-1.3,9.8c4.3,1.5,11.5,3.7,11.5,3.7v6.4h35.5
			v-6.4c0,0,7.3-2.2,11.5-3.7L86.1,174.2z"/>
		<path class="st8" d="M40.4,187.3c-0.1-1.9-0.7-3.8-1.9-5.3l-7.6-10.1c-0.4,0.8-0.6,1.6-0.7,2.4l-1.3,9.6L40.4,187.3z"/>
		<path class="st9" d="M27.6,184.2c-0.2,0.6,0.2,1.2,0.7,1.3l12,3.5v-1.2c0-0.8-0.1-1.5-0.3-2.2l-10.8-3.2c-0.6-0.2-1.2,0.2-1.3,0.7
			L27.6,184.2z"/>
		<path class="st8" d="M75.9,187.3c0.1-1.9,0.7-3.8,1.9-5.3l7.6-10.1c0.4,0.8,0.6,1.6,0.7,2.4l1.3,9.6L75.9,187.3z"/>
		<path class="st9" d="M88.6,184.2c0.2,0.6-0.2,1.2-0.7,1.3l-12,3.5v-1.2c0-0.8,0.1-1.5,0.3-2.2l10.8-3.2c0.6-0.2,1.2,0.2,1.3,0.7
			L88.6,184.2z"/>
		<path class="st10" d="M50,100.8c-5,0-23.4,9.2-18.5,30.5l0,0c-0.9,2.1-2.2,4.3-2.2,7.3c0,4.4,3.7,5.1,3.7,8c0,2.9-2.8,4.4-2.8,7.8
			c0,3.4,2.7,5.1,3.6,7.6c0.4,1.2-0.1,4.7-0.1,4.7s2.9-4.7,1.4-9.1c-1.5-4.4,0.2-4.8,1.6-6.7c2.1-2.9,1.8-6.1,0.1-9.2
			c-1.1-2-0.8-4,0.7-5.3c1.6-1.4,2-3.9,2-3.9l0,0c0,0,0,0,0,0c-4.6-21,13.6-30.1,18.6-30.1v0C58.1,102.4,55.3,100.8,50,100.8z"/>
	</g>
	<g>
	</g>
	<g>
	</g>
	<g>
	</g>
	<g>
	</g>
	<g>
	</g>
	<g>
	</g>
	<g>
	</g>
	<g>
	</g>
	<g>
	</g>
	<g>
	</g>
	<g>
	</g>
	<g>
	</g>
	<g>
	</g>
	<g>
	</g>
	<g>
	</g>
</g>
<rect x="302.4" y="179.4" class="st1" width="138" height="16.1"/>
<g>
	<g>
		<path class="st11" d="M208.2,189.3l-1.9-14.3c-0.3-2.6-2-4.9-4.3-6.1l-3.4-1.7c-0.5-0.3-1.1,0-1.3,0.5l-6.8-2.5
			c-1.3-0.4-2.2-1.7-2.2-3V157l6.9-2.9c3.6-1.5,5.9-5,5.9-8.8v-1.6c2.6,0,4.8-2.1,4.8-4.8c0-2.6-2.1-4.8-4.8-4.8v-3.2
			c0-4.4-3.6-11.2-8-11.2h-28.7c-4.4,0-8,6.8-8,11.2v14.3c0,3.9,2.3,7.3,5.9,8.8l6.9,2.9v5.1c0,1.4-0.9,2.6-2.2,3l-6.8,2.5
			c-0.2-0.5-0.8-0.7-1.3-0.5l-3.1,1.6c-2.7,1.3-4.3,3.6-4.6,6.2l-1.9,14.3c-0.4,2.9,1.8,5.4,4.7,5.4h49.6
			C206.3,194.7,208.6,192.1,208.2,189.3z"/>
		<g>
			<path class="st12" d="M210.5,164.5c0,0-4.8-27.7-4.8-38.2l-19.1,28.7l20.7,11.2c-1,1.9-1.9,4.5,1.6,8c3.1,3.1,4.8,9.6,4.8,9.6
				C218.1,167.2,210.5,164.5,210.5,164.5z"/>
			<g>
				<g>
					<path class="st13" d="M207.1,167.9l4.4-2.2c0.8-0.4,1.1-1.3,0.7-2.1l0,0c-0.4-0.8-1.3-1.1-2.1-0.7l-4.4,2.2
						c-0.8,0.4-1.1,1.3-0.7,2.1l0,0C205.4,168,206.3,168.3,207.1,167.9z"/>
				</g>
			</g>
		</g>
		<g>
			<path class="st14" d="M170.7,154.9l-19.1-28.7c0,10.5-4.8,38.2-4.8,38.2s-7.6,2.8-3.2,19.1c0,0,1.7-6.5,4.8-9.6
				c3.5-3.5,2.6-6.1,1.6-8L170.7,154.9z"/>
			<g>
				<g>
					<path class="st13" d="M150.2,167.9l-4.4-2.2c-0.8-0.4-1.1-1.3-0.7-2.1l0,0c0.4-0.8,1.3-1.1,2.1-0.7l4.4,2.2
						c0.8,0.4,1.1,1.3,0.7,2.1l0,0C151.9,168,151,168.3,150.2,167.9z"/>
				</g>
			</g>
		</g>
		<g>
			<path class="st4" d="M188,156.8h-18.9v5.3c0,1.1-0.6,2.2-1.6,2.7C180.8,167.2,188,156.8,188,156.8z"/>
		</g>
		<g>
			<path class="st15" d="M202,168.9l-3.4-1.7c-0.6-0.3-1.3,0-1.4,0.6c-2.2,8.1-9.6,14.1-18.5,14.1c-8.8,0-16.2-6-18.4-14.1
				c-0.2-0.6-0.8-1-1.4-0.7l-3.1,1.6c-2.7,1.3-4.3,3.6-4.6,6.2l-1.9,14.3c-0.4,2.9,1.8,5.4,4.7,5.4h49.6c2.9,0,5.1-2.5,4.7-5.4
				l-1.9-14.3C206,172.3,204.3,170.1,202,168.9z"/>
		</g>
		<g>
			<path class="st13" d="M151.7,172.6c-0.4,0.7-0.6,1.5-0.7,2.4l-1.9,14.3c-0.4,2.9,1.8,5.4,4.7,5.4h7.3v-6.4c0-2.1-0.7-4.1-1.9-5.7
				L151.7,172.6z"/>
		</g>
		<g>
			<path class="st13" d="M205.5,172.6c0.4,0.7,0.6,1.5,0.7,2.4l1.9,14.3c0.4,2.9-1.8,5.4-4.7,5.4h-7.3v-6.4c0-2.1,0.7-4.1,1.9-5.7
				L205.5,172.6z"/>
		</g>
		<path class="st16" d="M200.9,134.1v-3.2c0-4.4-3.6-11.2-8-11.2h-28.7c-4.4,0-8,6.8-8,11.2v14.3c0,3.9,2.3,7.3,5.9,8.8l10.3,4.3
			c1.9,0.8,4,1.2,6.1,1.2l0,0c2.1,0,4.2-0.4,6.1-1.2l10.3-4.3c3.6-1.5,5.9-5,5.9-8.8v-1.6c2.6,0,4.8-2.1,4.8-4.8
			C205.7,136.3,203.6,134.1,200.9,134.1z"/>
		<g>
			<path class="st5" d="M189.8,140.6L189.8,140.6c-0.9,0-1.6-0.7-1.6-1.6v-1.6c0-0.9,0.7-1.6,1.6-1.6l0,0c0.9,0,1.6,0.7,1.6,1.6v1.6
				C191.4,139.8,190.7,140.6,189.8,140.6z"/>
		</g>
		<g>
			<g>
				<path class="st17" d="M178.7,151.8c-2.8,0-5.5-0.7-7.3-1.9c-0.7-0.5-0.9-1.5-0.4-2.2c0.5-0.7,1.5-0.9,2.2-0.4
					c1.3,0.9,3.3,1.4,5.5,1.4c2.2,0,4.2-0.5,5.5-1.4c0.7-0.5,1.7-0.3,2.2,0.4c0.5,0.7,0.3,1.7-0.4,2.2
					C184.1,151.1,181.5,151.8,178.7,151.8z"/>
			</g>
		</g>
		<path class="st11" d="M182.4,125l-3.8-6.4c0,0-22.3,16.1-22.3,21.9v4.8c0,3.9,2.3,7.3,5.9,8.8l10.3,4.3c0.5,0.2,1,0.4,1.5,0.5
			c-4.5-3.3-7.5-6.2-9.3-8.1c-1.3-1.4-2-3.2-2-5.1v-2C162.7,133.7,178.3,132.2,182.4,125z"/>
		<g>
			<path class="st12" d="M153.2,135.4C153.2,135.4,153.2,135.4,153.2,135.4C153.2,135.4,153.2,135.4,153.2,135.4z"/>
			<path class="st12" d="M186.6,102.3c-5.2,0-8,1.6-8,1.6s-2.8-1.6-8-1.6s-24.8,10-17.5,33.1c2.4,6.7,6.4,9.9,6.4,9.9
				c-0.2-1.3,0-2.8,0.5-4.5c1.4-4.6,4.7-8.4,9-10.5c5.2-2.5,9.6-5.9,9.6-10.5c0,11,25.5,15.5,25.5,15.5
				C211.5,112.3,191.8,102.3,186.6,102.3z"/>
		</g>
		<g>
			<path class="st14" d="M178.7,103.9c0,0-2.8-1.6-8-1.6s-24.8,10-17.5,33.1c2.5,6.9,6.4,9.9,6.4,9.9
				C149.6,114.9,175.7,104.6,178.7,103.9z"/>
		</g>
		<g>
			<path class="st13" d="M178.7,185.2c10.5,0,19.3-7.3,21.7-17.1l-1.8-0.9c-0.6-0.3-1.3,0-1.4,0.7c-2.2,8.1-9.6,14.1-18.4,14.1
				c-8.8,0-16.2-6-18.4-14.1c-0.2-0.6-0.8-1-1.4-0.7l-1.8,0.9C159.4,177.9,168.2,185.2,178.7,185.2z"/>
		</g>
		<g>
			<path class="st13" d="M178.7,173.8c-6.4,0-12.1-3.3-13.8-8.1c-0.3-0.8,0.1-1.7,1-2c0.8-0.3,1.7,0.1,2,1c1.3,3.5,5.7,6,10.8,6
				c5.1,0,9.5-2.4,10.8-6c0.3-0.8,1.2-1.2,2-0.9c0.8,0.3,1.2,1.2,0.9,2C190.7,170.5,185,173.8,178.7,173.8z"/>
		</g>
		<g>
			<circle class="st13" cx="178.7" cy="175.4" r="4.6"/>
		</g>
		<g>
			<circle class="st18" cx="178.7" cy="175.4" r="3.2"/>
		</g>
		<g>
			<path class="st19" d="M177.1,175.4c0-1.5,1-2.7,2.4-3.1c-0.3-0.1-0.5-0.1-0.8-0.1c-1.8,0-3.2,1.4-3.2,3.2c0,1.8,1.4,3.2,3.2,3.2
				c0.3,0,0.5,0,0.8-0.1C178.1,178.1,177.1,176.8,177.1,175.4z"/>
		</g>
		<g>
			<circle class="st20" cx="179.5" cy="174.6" r="0.8"/>
		</g>
		<g>
			<path class="st5" d="M167.5,140.6L167.5,140.6c-0.9,0-1.6-0.7-1.6-1.6v-1.6c0-0.9,0.7-1.6,1.6-1.6l0,0c0.9,0,1.6,0.7,1.6,1.6v1.6
				C169.1,139.8,168.3,140.6,167.5,140.6z"/>
		</g>
	</g>
	<g>
	</g>
	<g>
	</g>
	<g>
	</g>
	<g>
	</g>
	<g>
	</g>
	<g>
	</g>
	<g>
	</g>
	<g>
	</g>
	<g>
	</g>
	<g>
	</g>
	<g>
	</g>
	<g>
	</g>
	<g>
	</g>
	<g>
	</g>
	<g>
	</g>
</g>
<g>
	<g>
		<path class="st21" d="M135.3,157.8c-3.5-1.1-12.1-1.6-16.6-1.7l0,0c-4.6,0-13.2,0.6-16.6,1.7l16.6,15.2L135.3,157.8z"/>
		<path class="st4" d="M151.2,188.9l-2.1-16.8c-0.3-2.5-2.1-4.7-4.5-5.5l-6-2c0-0.1,0.2-1.6-1.6-2.8c-1.5-1,0.5-2.7-1.8-3.9l-5.6,5
			c-0.7-0.6-1.1-1.5-1.1-2.4v-5.4l7.2-3c3.7-1.5,6.1-5.2,6.1-9.2v-21.8c0-4.6-3.7-8.3-8.3-8.3h-29.9c-4.6,0-8.3,3.7-8.3,8.3v21.8
			c0,4,2.4,7.7,6.1,9.2l7.2,3v5.4c0,0.9-0.4,1.8-1.1,2.4l-5.6-5c-2.2,1.1-0.3,2.9-1.8,3.9c-1.8,1.2-1.6,2.8-1.6,2.8l-6,2
			c-2.4,0.8-4.2,2.9-4.5,5.5L86,188.9c-0.4,3,2,5.6,5,5.6h0h55.1h0C149.2,194.5,151.5,191.9,151.2,188.9z"/>
		<g>
			<path class="st4" d="M128.6,155.1l-20-4.4v9.8c0,1.2-0.7,2.3-1.7,2.8C120.9,165.7,128.6,155.1,128.6,155.1z"/>
		</g>
		<g>
			<path class="st16" d="M135.7,152.1l-10.8,4.5c-2,0.8-4.2,1.3-6.4,1.3l0,0c-2.2,0-4.4-0.4-6.4-1.3l-10.7-4.5
				c-3.7-1.5-6.1-5.2-6.1-9.2v-21.8c0-4.6,3.7-8.3,8.3-8.3h29.9c4.6,0,8.3,3.7,8.3,8.3v21.8C141.9,146.9,139.5,150.6,135.7,152.1z"
				/>
		</g>
		<g>
			<path class="st5" d="M106.9,137.9L106.9,137.9c-0.9,0-1.7-0.7-1.7-1.7v-1.7c0-0.9,0.7-1.7,1.7-1.7l0,0c0.9,0,1.7,0.7,1.7,1.7v1.7
				C108.6,137.1,107.9,137.9,106.9,137.9z"/>
		</g>
		<g>
			<path class="st5" d="M130.2,137.9L130.2,137.9c-0.9,0-1.7-0.7-1.7-1.7v-1.7c0-0.9,0.7-1.7,1.7-1.7l0,0c0.9,0,1.7,0.7,1.7,1.7v1.7
				C131.9,137.1,131.2,137.9,130.2,137.9z"/>
		</g>
		<g>
			<g>
				<path class="st17" d="M118.7,149.6c-3,0-5.7-0.7-7.6-2c-0.8-0.5-1-1.6-0.4-2.3c0.5-0.8,1.6-1,2.3-0.4c1.3,0.9,3.4,1.4,5.7,1.4
					c2.3,0,4.4-0.5,5.7-1.4c0.8-0.5,1.8-0.3,2.3,0.4c0.5,0.8,0.3,1.8-0.4,2.3C124.4,148.8,121.6,149.6,118.7,149.6z"/>
			</g>
		</g>
		<path class="st11" d="M126.5,130.4v-11.2L95.3,119v23.9c0,4,2.4,7.7,6.1,9.2l10.7,4.5c0.5,0.2,1.1,0.4,1.6,0.6
			c-4.7-3.5-7.9-6.5-9.7-8.5c-1.4-1.5-2.1-3.4-2.1-5.4l0-18.3C105,126.7,115.1,130.4,126.5,130.4z"/>
		<g>
			<path class="st22" d="M151.3,188.6l-2.2-16.8c-0.3-2.5-2.1-4.7-4.5-5.5l-9.4-3.1c-0.8-0.2-1.6,0.1-2,0.8
				c-2.8,5.2-13.9,8.8-14.6,8.8c-0.6,0-11.8-3.5-14.7-8.6c-0.4-0.7-1.2-1-2-0.7l-9.4,3.2c-2.4,0.8-4.2,3-4.5,5.5l-2,16.9
				c-0.4,3,2,5.6,5,5.6l55.2-0.3C149.4,194.2,151.7,191.6,151.3,188.6z"/>
		</g>
		<g>
			<path class="st23" d="M89.5,168.7c-0.7,0.9-1.2,2.1-1.4,3.3L86,188.9c-0.4,3,2,5.6,5,5.6h9.3v-10.8c0-1.6-0.6-3.1-1.6-4.4
				L89.5,168.7z"/>
		</g>
		<g>
			<path class="st23" d="M147.7,168.7c0.7,0.9,1.2,2.1,1.4,3.3l2.1,16.8c0.4,3-2,5.6-5,5.6h-9.3v-10.8c0-1.6,0.6-3.1,1.6-4.4
				L147.7,168.7z"/>
		</g>
		<g>
			<path class="st23" d="M137.1,161.7c-1.5-1,0.5-2.7-1.8-3.9l-16.6,15l-16.6-15c-2.2,1.1-0.3,2.9-1.8,3.9c-1.8,1.2-1.6,2.8-1.6,2.8
				l19.9,10v0l0.1,0l0.1,0v0l19.8-10C138.6,164.5,138.9,163,137.1,161.7z"/>
		</g>
		<g>
			<path class="st15" d="M118.7,182.8c-6.4,0-11.6,5.2-11.6,11.6h23.3C130.3,188.1,125.1,182.8,118.7,182.8z"/>
		</g>
		<path class="st12" d="M102.5,119.8c0.3,0.3,4.8,4.5,11.1,4.8v-3.4c0,0,4.3,5.5,15,6.9v-6.8l3.3,6.7l11-5.5v-7.6
			c0-8-6.5-14.6-14.6-14.6h-19.5c-8,0-14.6,6.5-14.6,14.6v12.5L102.5,119.8C102.5,119.8,102.5,119.8,102.5,119.8z"/>
		<path class="st14" d="M107.4,100.3c-7.4,0.7-13.1,6.9-13.1,14.5v12.5l8.3-7.5c0,0,0,0,0,0c0.3,0.3,4.8,4.5,11.1,4.8
			C109.6,117.4,107.7,105.7,107.4,100.3z"/>
		<g>
			<path class="st21" d="M92,141.3h-1.7c-0.9,0-1.7-0.7-1.7-1.7v-5c0-0.9,0.7-1.7,1.7-1.7H92c0.9,0,1.7,0.7,1.7,1.7v5
				C93.6,140.5,92.9,141.3,92,141.3z"/>
		</g>
		<g>
			<path class="st21" d="M145.2,132.9h1.7c0.9,0,1.7,0.7,1.7,1.7v5c0,0.9-0.7,1.7-1.7,1.7h-1.7c-0.9,0-1.7-0.7-1.7-1.7v-5
				C143.5,133.7,144.3,132.9,145.2,132.9z"/>
		</g>
		<g>
			<path class="st21" d="M145.2,132.9h-3.3v-18.3c0-7.4-6-13.3-13.3-13.3h-20c-7.4,0-13.3,6-13.3,13.3v18.3H92v-18.3
				c0-9.2,7.4-16.6,16.6-16.6h20c9.2,0,16.6,7.4,16.6,16.6V132.9z"/>
		</g>
		<g>
			<path class="st23" d="M92.8,144.5L92.8,144.5c-1.4,0-2.5-1.1-2.5-2.5v-10c0-1.4,1.1-2.5,2.5-2.5l0,0c1.4,0,2.5,1.1,2.5,2.5v10
				C95.3,143.4,94.2,144.5,92.8,144.5z"/>
		</g>
		<g>
			<path class="st23" d="M144.4,129.6L144.4,129.6c1.4,0,2.5,1.1,2.5,2.5v10c0,1.4-1.1,2.5-2.5,2.5l0,0c-1.4,0-2.5-1.1-2.5-2.5v-10
				C141.9,130.7,143,129.6,144.4,129.6z"/>
		</g>
	</g>
	<g>
	</g>
	<g>
	</g>
	<g>
	</g>
	<g>
	</g>
	<g>
	</g>
	<g>
	</g>
	<g>
	</g>
	<g>
	</g>
	<g>
	</g>
	<g>
	</g>
	<g>
	</g>
	<g>
	</g>
	<g>
	</g>
	<g>
	</g>
	<g>
	</g>
</g>
<g>
	<g>
		<path class="st24" d="M217.8,148.9l-10-3.3c0,0-0.3-7.1,1.6-11.4l-4.9-9.8c0,0,2.4-3.5,8.1-6.5l-1.6-11.4l14.7-3.3v-3.3
			c0,0,18.2,1.1,24.4,3.3l8.1-3.3v9.8l9.8-1.6c0,0,2,5.7,0,13l6.5,8.1l-4.9,4.9l1.6,9.8l-12.4,5.1L217.8,148.9z"/>
		<path class="st25" d="M245.5,149l-0.1-27.8c0,0,0.3-16.7-19.6-21.2v3.3l-14.7,3.3l1.6,11.4c-0.4,0.2-0.7,0.4-1,0.6
			c-3.8,2.2-6,4.5-6.8,5.5c-0.2,0.3-0.4,0.5-0.4,0.5l4.9,9.8c-0.1,0.1-0.1,0.3-0.2,0.4c-1.3,3.4-1.5,8.1-1.5,10.1c0,0.2,0,0.3,0,0.4
			c0,0.3,0,0.5,0,0.5l10,3.3L245.5,149z"/>
		<path class="st11" d="M270.6,189l-2.1-16.5c-0.3-2.5-2-4.6-4.4-5.4l-8.9-3c-0.8-0.3-1.7,0.1-2,1l-2.5-0.8
			c-1.3-0.4-2.2-1.7-2.2-3.1V156l7-2.9c3.6-1.5,6-5.1,6-9v-1.6c2.7,0,4.9-2.2,4.9-4.9c0-2.7-2.2-4.9-4.9-4.9v-3.3
			c0-4.5-3.6-8.1-8.1-8.1h-29.3c-4.5,0-8.1,3.6-8.1,8.1v3.3c-2.7,0-4.9,2.2-4.9,4.9c0,2.7,2.2,4.9,4.9,4.9v1.6c0,3.9,2.4,7.5,6,9
			l7,2.9v5.3c0,1.4-0.9,2.6-2.2,3.1l-2.5,0.8c-0.3-0.8-1.2-1.2-2-1l-8.9,3c-2.4,0.8-4.1,2.9-4.4,5.4l-2.1,16.5
			c-0.4,2.9,1.9,5.5,4.8,5.5h0h54h0C268.7,194.5,271,191.9,270.6,189z"/>
		<path class="st4" d="M248.5,155.8L248.5,155.8H229v5.3c0,1.2-0.6,2.2-1.6,2.8C241,166.2,248.5,155.8,248.5,155.8z"/>
		<path class="st26" d="M238.8,171.7c-5.3,0-10.1-1.6-14.1-4.4l0,0c0,6.8,5.5,12.4,12.4,12.4h3.6c6.8,0,12.4-5.5,12.4-12.4l0,0
			C249,170.1,244.1,171.7,238.8,171.7z"/>
		<path class="st27" d="M270.7,189l-2.1-16.5c-0.3-2.5-2-4.6-4.4-5.4l-8.9-3c-0.8-0.3-1.8,0.2-2.1,1c-0.8,2.6-2,5-3.5,7.3
			c-5.1,8.1-16.9,8.1-22,0c-1.4-2.2-2.7-4.7-3.5-7.3c-0.3-0.9-1.2-1.3-2.1-1l-8.9,3c-2.4,0.8-4.1,2.9-4.4,5.4L207,189
			c-0.4,2.9,1.9,5.5,4.8,5.5h54.1C268.8,194.5,271.1,191.9,270.7,189z"/>
		<path class="st16" d="M261.5,132.6v-3.3c0-4.5-3.6-8.1-8.1-8.1h-29.3c-4.5,0-8.1,3.6-8.1,8.1v3.3c-2.7,0-4.9,2.2-4.9,4.9
			c0,2.7,2.2,4.9,4.9,4.9v1.6c0,3.9,2.4,7.5,6,9l10.5,4.4c2,0.8,4.1,1.3,6.3,1.3l0,0c2.1,0,4.3-0.4,6.3-1.3l10.5-4.4
			c3.6-1.5,6-5.1,6-9v-1.6c2.7,0,4.9-2.2,4.9-4.9C266.4,134.8,264.2,132.6,261.5,132.6z"/>
		<path class="st5" d="M227.4,139.1L227.4,139.1c-0.9,0-1.6-0.7-1.6-1.6v-1.6c0-0.9,0.7-1.6,1.6-1.6l0,0c0.9,0,1.6,0.7,1.6,1.6v1.6
			C229,138.3,228.2,139.1,227.4,139.1z"/>
		<path class="st5" d="M250.1,139.1L250.1,139.1c-0.9,0-1.6-0.7-1.6-1.6v-1.6c0-0.9,0.7-1.6,1.6-1.6l0,0c0.9,0,1.6,0.7,1.6,1.6v1.6
			C251.8,138.3,251,139.1,250.1,139.1z"/>
		<path class="st17" d="M238.8,150.5c-2.9,0-5.6-0.7-7.4-2c-0.7-0.5-0.9-1.5-0.4-2.3c0.5-0.7,1.5-0.9,2.3-0.4
			c1.3,0.9,3.4,1.4,5.6,1.4c2.2,0,4.3-0.5,5.6-1.4c0.7-0.5,1.8-0.3,2.3,0.4c0.5,0.7,0.3,1.8-0.4,2.3
			C244.4,149.8,241.7,150.5,238.8,150.5z"/>
		<path class="st28" d="M210.3,169.3c-0.7,0.9-1.2,2-1.4,3.2l-2.1,16.5c-0.4,2.9,1.9,5.5,4.8,5.5h9.1v-10.6c0-1.6-0.6-3.1-1.6-4.3
			L210.3,169.3z"/>
		<path class="st28" d="M267.2,169.3c0.7,0.9,1.2,2,1.4,3.2l2.1,16.5c0.4,2.9-1.9,5.5-4.8,5.5h-9.1v-10.6c0-1.6,0.6-3.1,1.6-4.3
			L267.2,169.3z"/>
		<path class="st11" d="M224.5,149.6c-1.3-1.4-2-3.3-2-5.2v-23.1c-3.7,0.8-6.5,4-6.5,8v3.3c-2.7,0-4.9,2.2-4.9,4.9s2.2,4.9,4.9,4.9
			v1.6c0,3.9,2.4,7.5,6,9l10.5,4.4c0.5,0.2,1,0.4,1.6,0.6C229.4,154.5,226.3,151.5,224.5,149.6z"/>
		<path class="st25" d="M221.7,120.6c-1,3.9-0.8,8.8-0.8,8.8c1.6-3.1,6.4-7.3,9.6-8.8C230.5,120.6,221.7,120.6,221.7,120.6z"/>
	</g>
	<g>
	</g>
	<g>
	</g>
	<g>
	</g>
	<g>
	</g>
	<g>
	</g>
	<g>
	</g>
	<g>
	</g>
	<g>
	</g>
	<g>
	</g>
	<g>
	</g>
	<g>
	</g>
	<g>
	</g>
	<g>
	</g>
	<g>
	</g>
	<g>
	</g>
</g>
</svg>
