<?xml version="1.0" encoding="utf-8"?>
<!-- Generator: Adobe Illustrator 22.0.1, SVG Export Plug-In . SVG Version: 6.00 Build 0)  -->
<svg version="1.1" id="Layer_1" xmlns="http://www.w3.org/2000/svg" xmlns:xlink="http://www.w3.org/1999/xlink" x="0px" y="0px"
	 viewBox="0 0 1600 864" style="enable-background:new 0 0 1600 864;" xml:space="preserve">
<style type="text/css">
	.st0{fill:#222222;}
	.st1{fill:#333333;}
	.st2{fill:#FFFFFF;}
	.st3{font-family:'ExpletusSans-Bold';}
	.st4{font-size:100px;}
	.st5{fill:#666666;}
	.st6{fill:#EFD4A5;}
	.st7{fill:#363636;}
	.st8{fill:#AAAAAA;}
	.st9{fill:#48A4FF;}
	.st10{fill:#C8C8C8;}
	.st11{fill:#CFD0D5;}
	.st12{fill:#4D4D4D;}
	.st13{fill:#FF3333;}
	.st14{font-size:7px;}
	.st15{fill:#88BDF7;}
	.st16{fill:#D4D4CA;}
	.st17{fill:#808080;}
	.st18{fill:#3FA9F5;}
	.st19{fill:#CB6C4E;}
	.st20{fill:#B78749;}
	.st21{fill:#84B03D;}
	.st22{fill:#63943B;}
	.st23{fill:#435A2C;}
	.st24{opacity:0.2;}
	.st25{fill:#916A33;}
</style>
<rect x="0" class="st0" width="1600" height="864"/>
<rect y="818.8" class="st1" width="1600" height="45.3"/>
<text transform="matrix(1 0 0 1 671.4 282.7)" class="st2 st3 st4">Hackr</text>
<polygon class="st5" points="824.8,863.3 688.7,863.3 691,860.4 822,860.4 "/>
<polygon class="st5" points="740.2,837.6 459.2,837.6 464.1,834.6 734.4,834.6 "/>
<polygon class="st5" points="1140.8,837.1 859.8,837.1 864.7,834.2 1134.9,834.2 "/>
<g>
	<rect x="471.4" y="615.4" class="st6" width="656.3" height="11.7"/>
</g>
<g>
	<rect x="413.5" y="729.2" transform="matrix(0.5 -0.866 0.866 0.5 -367.3029 829.9012)" class="st6" width="243.1" height="7.8"/>
</g>
<g>
	<rect x="658.5" y="611.5" transform="matrix(0.866 -0.5 0.5 0.866 -277.7735 429.4229)" class="st6" width="7.8" height="243.1"/>
</g>
<g>
	<rect x="815.1" y="729.2" transform="matrix(0.5 -0.866 0.866 0.5 -166.5348 1177.6417)" class="st6" width="243.1" height="7.8"/>
</g>
<g>
	<rect x="1060.1" y="611.5" transform="matrix(0.866 -0.5 0.5 0.866 -223.978 630.1909)" class="st6" width="7.8" height="243.1"/>
</g>
<path class="st7" d="M877.1,581.6H636.3c-3.3,0-6-2.7-6-6v-148c0-3.3,2.7-6,6-6h240.8c3.3,0,6,2.7,6,6v148
	C883.1,578.9,880.4,581.6,877.1,581.6z"/>
<rect x="637.1" y="429.3" class="st8" width="238.2" height="134"/>
<circle class="st9" cx="864.7" cy="572.6" r="3.4"/>
<circle class="st10" cx="852.5" cy="572.6" r="3.4"/>
<circle class="st10" cx="840.3" cy="572.6" r="3.4"/>
<circle class="st11" cx="756.7" cy="855.5" r="7.3"/>
<circle class="st11" cx="698.4" cy="855.5" r="7.3"/>
<circle class="st11" cx="815.1" cy="855.5" r="7.3"/>
<rect x="752.8" y="800.6" class="st11" width="7.8" height="50.6"/>
<path class="st11" d="M757,831.2c-7.8-1.9-54.4,18.5-58.3,22.4s-2.9-7.8,0-8.8s50.6-25.3,58.3-20.4S764.8,833.2,757,831.2z"/>
<path class="st11" d="M756.4,831.2c7.8-1.9,54.4,18.5,58.3,22.4c3.9,3.9,2.9-7.8,0-8.8c-2.9-1-50.6-25.3-58.3-20.4
	S748.6,833.2,756.4,831.2z"/>
<path class="st11" d="M870.5,734h-33.1c-3.7,0-6.8-3.1-6.8-6.8l0,0c0-3.7,3.1-6.8,6.8-6.8h33.1c3.7,0,6.8,3.1,6.8,6.8l0,0
	C877.3,731,874.2,734,870.5,734z"/>
<path class="st11" d="M676,734H643c-3.7,0-6.8-3.1-6.8-6.8l0,0c0-3.7,3.1-6.8,6.8-6.8H676c3.7,0,6.8,3.1,6.8,6.8l0,0
	C682.8,731,679.8,734,676,734z"/>
<path class="st12" d="M841,739.8H670.5c-6.6,0-12-5.4-12-12v-2.3c0-6.6,5.4-12,12-12H841c6.6,0,12,5.4,12,12v2.3
	C853,734.4,847.6,739.8,841,739.8z"/>
<rect x="746.5" y="690.3" class="st11" width="19.4" height="125.4"/>
<text transform="matrix(1 0 0 1 642.0104 437.7095)"><tspan x="0" y="0" class="st13 st3 st14">root@kali</tspan><tspan x="33" y="0" class="st2 st3 st14">:</tspan><tspan x="35.1" y="0" class="st15 st3 st14">~/</tspan><tspan x="41.7" y="0" class="st2 st3 st14">kali &gt;find  / -perm +4000 -user root -type f -print</tspan><tspan x="0" y="8.4" class="st13 st3 st14">root@kali</tspan><tspan x="33" y="8.4" class="st2 st3 st14">:</tspan><tspan x="35.1" y="8.4" class="st15 st3 st14">~/</tspan><tspan x="41.7" y="8.4" class="st2 st3 st14">qwertyuiopasdfghdd if=/dev/random of=/dev/sda</tspan><tspan x="0" y="16.8" class="st13 st3 st14">root@kali</tspan><tspan x="33" y="16.8" class="st2 st3 st14">:</tspan><tspan x="35.1" y="16.8" class="st15 st3 st14">~/</tspan><tspan x="41.7" y="16.8" class="st2 st3 st14">qwertyuiopasdfghcat  /etc/shadow</tspan><tspan x="0" y="25.2" class="st13 st3 st14">root@kali</tspan><tspan x="33" y="25.2" class="st2 st3 st14">:</tspan><tspan x="35.1" y="25.2" class="st15 st3 st14">~/</tspan><tspan x="41.7" y="25.2" class="st2 st3 st14">kali &gt;find  / -perm +4000 -user root -type f -print</tspan><tspan x="0" y="33.6" class="st13 st3 st14">root@kali</tspan><tspan x="33" y="33.6" class="st2 st3 st14">:</tspan><tspan x="35.1" y="33.6" class="st15 st3 st14">~/</tspan><tspan x="41.7" y="33.6" class="st2 st3 st14">qwertyuiopasdfghdd if=/dev/random of=/dev/sda</tspan><tspan x="0" y="42" class="st13 st3 st14">root@kali</tspan><tspan x="33" y="42" class="st2 st3 st14">:</tspan><tspan x="35.1" y="42" class="st15 st3 st14">~/</tspan><tspan x="41.7" y="42" class="st2 st3 st14">qwertyuiopasdfghcat  /etc/shadow</tspan><tspan x="0" y="50.4" class="st13 st3 st14">root@kali</tspan><tspan x="33" y="50.4" class="st2 st3 st14">:</tspan><tspan x="35.1" y="50.4" class="st15 st3 st14">~/</tspan><tspan x="41.7" y="50.4" class="st2 st3 st14">kali &gt;find  / -perm +4000 -user root -type f -print</tspan><tspan x="0" y="58.8" class="st13 st3 st14">root@kali</tspan><tspan x="33" y="58.8" class="st2 st3 st14">:</tspan><tspan x="35.1" y="58.8" class="st15 st3 st14">~/</tspan><tspan x="41.7" y="58.8" class="st2 st3 st14">qwertyuiopasdfghdd if=/dev/random of=/dev/sda</tspan><tspan x="0" y="67.2" class="st13 st3 st14">root@kali</tspan><tspan x="33" y="67.2" class="st2 st3 st14">:</tspan><tspan x="35.1" y="67.2" class="st15 st3 st14">~/</tspan><tspan x="41.7" y="67.2" class="st2 st3 st14">qwertyuiopasdfghcat  /etc/shadow</tspan><tspan x="0" y="75.6" class="st13 st3 st14">root@kali</tspan><tspan x="33" y="75.6" class="st2 st3 st14">:</tspan><tspan x="35.1" y="75.6" class="st15 st3 st14">~/</tspan><tspan x="41.7" y="75.6" class="st2 st3 st14">kali &gt;find  / -perm +4000 -user root -type f -print</tspan><tspan x="0" y="84" class="st13 st3 st14">root@kali</tspan><tspan x="33" y="84" class="st2 st3 st14">:</tspan><tspan x="35.1" y="84" class="st15 st3 st14">~/</tspan><tspan x="41.7" y="84" class="st2 st3 st14">qwertyuiopasdfghdd if=/dev/random of=/dev/sda</tspan><tspan x="0" y="92.4" class="st13 st3 st14">root@kali</tspan><tspan x="33" y="92.4" class="st2 st3 st14">:</tspan><tspan x="35.1" y="92.4" class="st15 st3 st14">~/</tspan><tspan x="41.7" y="92.4" class="st2 st3 st14">qwertyuiopasdfghcat  /etc/shadow</tspan><tspan x="0" y="100.8" class="st13 st3 st14">root@kali</tspan><tspan x="33" y="100.8" class="st2 st3 st14">:</tspan><tspan x="35.1" y="100.8" class="st15 st3 st14">~/</tspan><tspan x="41.7" y="100.8" class="st2 st3 st14">kali &gt;find  / -perm +4000 -user root -type f -print</tspan><tspan x="0" y="109.2" class="st13 st3 st14">root@kali</tspan><tspan x="33" y="109.2" class="st2 st3 st14">:</tspan><tspan x="35.1" y="109.2" class="st15 st3 st14">~/</tspan><tspan x="41.7" y="109.2" class="st2 st3 st14">qwertyuiopasdfghdd if=/dev/random of=/dev/sda</tspan><tspan x="0" y="117.6" class="st13 st3 st14">root@kali</tspan><tspan x="33" y="117.6" class="st2 st3 st14">:</tspan><tspan x="35.1" y="117.6" class="st15 st3 st14">~/</tspan><tspan x="41.7" y="117.6" class="st2 st3 st14">qwertyuiopasdfghcat  /etc/shadow</tspan></text>
<path class="st12" d="M705.1,513.3h101.4c16.5,0,30,13.5,30,30v135.9c0,6.6-5.4,12-12,12H687.1c-6.6,0-12-5.4-12-12V543.3
	C675.1,526.8,688.6,513.3,705.1,513.3z"/>
<path class="st11" d="M878.3,693.2v33.1c0,3.7-3.1,6.8-6.8,6.8l0,0c-3.7,0-6.8-3.1-6.8-6.8v-33.1c0-3.7,3.1-6.8,6.8-6.8l0,0
	C875.2,686.4,878.3,689.4,878.3,693.2z"/>
<path class="st11" d="M648.8,693.2v33.1c0,3.7-3.1,6.8-6.8,6.8h0c-3.7,0-6.8-3.1-6.8-6.8v-33.1c0-3.7,3.1-6.8,6.8-6.8h0
	C645.8,686.4,648.8,689.4,648.8,693.2z"/>
<path class="st12" d="M888.3,692.7h-33.8c-2.8,0-5-2.3-5-5v-4.6c0-2.8,2.3-5,5-5h33.8c2.8,0,5,2.3,5,5v4.6
	C893.3,690.4,891.1,692.7,888.3,692.7z"/>
<path class="st12" d="M658.9,692.7h-33.8c-2.8,0-5-2.3-5-5v-4.6c0-2.8,2.3-5,5-5h33.8c2.8,0,5,2.3,5,5v4.6
	C663.9,690.4,661.6,692.7,658.9,692.7z"/>
<path class="st16" d="M610.4,615.4h-47.6V500c0-6.6,5.4-12,12-12h23.6c6.6,0,12,5.4,12,12V615.4z"/>
<path class="st17" d="M598.5,592.1h-23.9c-4.4,0-8-3.6-8-8v-84.1c0-4.4,3.6-8,8-8h23.9c4.4,0,8,3.6,8,8v84.1
	C606.5,588.5,602.9,592.1,598.5,592.1z"/>
<circle class="st12" cx="586.6" cy="510.4" r="16.5"/>
<circle class="st17" cx="586.6" cy="510.4" r="11.7"/>
<circle class="st12" cx="586.6" cy="546.9" r="13.6"/>
<circle class="st17" cx="586.6" cy="546.9" r="8.8"/>
<circle class="st12" cx="586.6" cy="578.5" r="10.7"/>
<circle class="st17" cx="586.6" cy="578.5" r="5.8"/>
<circle class="st18" cx="586.6" cy="604.7" r="2.9"/>
<path class="st16" d="M950.7,615.4h-47.6V500c0-6.6,5.4-12,12-12h23.6c6.6,0,12,5.4,12,12V615.4z"/>
<path class="st17" d="M938.8,592.1h-23.9c-4.4,0-8-3.6-8-8v-84.1c0-4.4,3.6-8,8-8h23.9c4.4,0,8,3.6,8,8v84.1
	C946.8,588.5,943.2,592.1,938.8,592.1z"/>
<circle class="st12" cx="926.9" cy="510.4" r="16.5"/>
<circle class="st17" cx="926.9" cy="510.4" r="11.7"/>
<circle class="st12" cx="926.9" cy="546.9" r="13.6"/>
<circle class="st17" cx="926.9" cy="546.9" r="8.8"/>
<circle class="st12" cx="926.9" cy="578.5" r="10.7"/>
<circle class="st17" cx="926.9" cy="578.5" r="5.8"/>
<circle class="st18" cx="926.9" cy="604.7" r="2.9"/>
<ellipse class="st19" cx="972" cy="598.4" rx="8.2" ry="14.1"/>
<ellipse class="st2" cx="971.1" cy="598.4" rx="5.5" ry="9.4"/>
<rect x="943.4" y="581.4" class="st19" width="26.8" height="34"/>
<polygon class="st20" points="1066.2,615.4 1039.9,615.4 1029.9,569.7 1073.7,569.7 "/>
<path class="st21" d="M1053.1,571.7c0,0,2.7-5.6,9.2-7.2s9.8-1.6,9.8-1.6S1059.1,566.1,1053.1,571.7z"/>
<path class="st22" d="M1052.9,572c0,0,6.4-12.7,13.7-14.7c7.2-2.1,10.3-1.2,10.3-1.2S1062.4,560.2,1052.9,572z"/>
<path class="st21" d="M1052.1,571.7c0,0,4-25.4,13.8-32.6s14.6-7.2,14.6-7.2S1061.1,546.3,1052.1,571.7z"/>
<path class="st23" d="M1052,572c0,0,8.8-18.8,17.8-22.2c9-3.5,12.7-2.4,12.7-2.4S1064.4,554.3,1052,572z"/>
<path class="st22" d="M1052,571c0,0,10.8-25.1,20.6-30.3c9.9-5.2,13.7-4.1,13.7-4.1S1066.6,547,1052,571z"/>
<path class="st21" d="M1052,571.8c0,0-5.6-24.7,7.3-40.5c12.9-15.9,21.1-20.9,21.1-20.9S1054.7,542.1,1052,571.8z"/>
<polygon class="st24" points="637.1,539.6 637.1,429.3 855.9,429.3 "/>
<path class="st23" d="M1052,571.2c0,0-0.7-25.9,11.3-36.6c12.1-10.7,19.1-12.6,19.1-12.6S1058.3,543.5,1052,571.2z"/>
<path class="st22" d="M1052,571.2c0,0-4.1-37.3,6.4-51.1c10.5-13.8,17.2-15.6,17.2-15.6S1054.6,532.2,1052,571.2z"/>
<path class="st21" d="M1050.5,570.7c0,0-2.7-5.6-9.2-7.2c-6.5-1.6-9.7-1.6-9.7-1.6S1044.5,565.1,1050.5,570.7z"/>
<path class="st23" d="M1050.7,571c0,0-4.2-5.9-10.4-6.1c-6.1-0.2-8.9,0.6-8.9,0.6S1043.6,566,1050.7,571z"/>
<path class="st22" d="M1050.7,571c0,0-6.4-12.7-13.7-14.7c-7.2-2.1-10.3-1.2-10.3-1.2S1041.1,559.2,1050.7,571z"/>
<path class="st21" d="M1051.4,570.7c0,0-4-25.4-13.8-32.6c-9.7-7.2-14.6-7.2-14.6-7.2S1042.5,545.3,1051.4,570.7z"/>
<path class="st23" d="M1051.6,571c0,0-8.8-18.8-17.8-22.2c-9-3.5-12.7-2.4-12.7-2.4S1039.2,553.3,1051.6,571z"/>
<path class="st22" d="M1051.6,570c0,0-10.8-25.1-20.6-30.3c-9.9-5.2-13.7-4.1-13.7-4.1S1037,546.1,1051.6,570z"/>
<path class="st21" d="M1051.6,570.8c0,0,5.6-24.7-7.3-40.5c-12.9-15.9-21.1-20.9-21.1-20.9S1048.9,541.2,1051.6,570.8z"/>
<path class="st22" d="M1051.5,570.2c0,0,4.1-37.3-6.4-51.1c-10.5-13.8-17.1-15.6-17.1-15.6S1049,531.2,1051.5,570.2z"/>
<path class="st23" d="M1052.3,571.6c0,0-8.4-37.5-2.4-51.1c6-13.6,10.8-15.3,10.8-15.3S1048.7,532.4,1052.3,571.6z"/>
<path class="st22" d="M1052.6,571c0,0-8.3-36.7-18.4-43.2c-10.1-6.6-14.4-4.3-14.4-4.3S1039.9,536.6,1052.6,571z"/>
<rect x="1028.5" y="567.8" class="st25" width="46.7" height="8.8"/>
</svg>
